<mxfile host="drawio-plugin" modified="2022-10-23T14:19:16.477Z" agent="5.0 (Windows NT 6.2; Win64; x64) AppleWebKit/537.36 (KHTML, like Gecko) Chrome/98.0.4758.102 Safari/537.36" etag="1X90HjqJcHG0PAKRFB66" version="15.5.4" type="embed" pages="2"><diagram id="M7q_rjLCUN6_J-MULVA2" name="er-diagram"><mxGraphModel dx="1792" dy="735" grid="1" gridSize="10" guides="1" tooltips="1" connect="1" arrows="1" fold="1" page="1" pageScale="1" pageWidth="850" pageHeight="1100" math="0" shadow="0"><root><mxCell id="0"/><mxCell id="1" parent="0"/><mxCell id="79" value="" style="endArrow=none;html=1;rounded=0;fontSize=14;" parent="1" source="45" target="78" edge="1"><mxGeometry width="50" height="50" relative="1" as="geometry"><mxPoint x="-357.5" y="254.9999999999999" as="sourcePoint"/><mxPoint x="-357.5" y="200" as="targetPoint"/></mxGeometry></mxCell><mxCell id="56" value="" style="endArrow=none;html=1;rounded=0;fontSize=14;" parent="1" source="T7bIl6d8-GQxwLn4p8uf-76" target="55" edge="1"><mxGeometry width="50" height="50" relative="1" as="geometry"><mxPoint x="-394.2647058823529" y="475" as="sourcePoint"/><mxPoint x="-462.69292523395916" y="428.46881084090774" as="targetPoint"/></mxGeometry></mxCell><mxCell id="53" value="" style="endArrow=none;html=1;rounded=0;fontSize=14;" parent="1" source="T7bIl6d8-GQxwLn4p8uf-77" target="52" edge="1"><mxGeometry width="50" height="50" relative="1" as="geometry"><mxPoint x="-51.68305996277877" y="433.87181253877225" as="sourcePoint"/><mxPoint x="90" y="420" as="targetPoint"/></mxGeometry></mxCell><mxCell id="37" value="" style="endArrow=none;html=1;rounded=0;fontSize=14;" parent="1" source="45" target="36" edge="1"><mxGeometry width="50" height="50" relative="1" as="geometry"><mxPoint x="-440" y="290" as="sourcePoint"/><mxPoint x="-711.25" y="130" as="targetPoint"/></mxGeometry></mxCell><mxCell id="41" value="" style="endArrow=none;html=1;rounded=0;fontSize=14;" parent="1" source="45" target="40" edge="1"><mxGeometry width="50" height="50" relative="1" as="geometry"><mxPoint x="-711.25" y="190" as="sourcePoint"/><mxPoint x="-711.25" y="130" as="targetPoint"/></mxGeometry></mxCell><mxCell id="43" value="" style="endArrow=none;html=1;rounded=0;fontSize=14;" parent="1" source="45" target="42" edge="1"><mxGeometry width="50" height="50" relative="1" as="geometry"><mxPoint x="-367" y="240" as="sourcePoint"/><mxPoint x="-813.7500000000034" y="219.9999999999999" as="targetPoint"/></mxGeometry></mxCell><mxCell id="39" value="" style="endArrow=none;html=1;rounded=0;fontSize=14;" parent="1" source="45" target="38" edge="1"><mxGeometry width="50" height="50" relative="1" as="geometry"><mxPoint x="-651.25" y="220" as="sourcePoint"/><mxPoint x="-586.25" y="220" as="targetPoint"/></mxGeometry></mxCell><mxCell id="33" value="" style="endArrow=none;html=1;rounded=0;fontSize=14;" parent="1" source="20" target="30" edge="1"><mxGeometry width="50" height="50" relative="1" as="geometry"><mxPoint x="537.75" y="284.80386415632506" as="sourcePoint"/><mxPoint x="452.9584311727938" y="299.91813729057253" as="targetPoint"/></mxGeometry></mxCell><mxCell id="35" value="" style="endArrow=none;html=1;rounded=0;fontSize=14;" parent="1" source="20" target="29" edge="1"><mxGeometry width="50" height="50" relative="1" as="geometry"><mxPoint x="559.4166666666667" y="250" as="sourcePoint"/><mxPoint x="470.1148628424892" y="183.02364713186694" as="targetPoint"/></mxGeometry></mxCell><mxCell id="32" value="" style="endArrow=none;html=1;rounded=0;fontSize=14;" parent="1" source="20" target="31" edge="1"><mxGeometry width="50" height="50" relative="1" as="geometry"><mxPoint x="495.9852941176471" y="470" as="sourcePoint"/><mxPoint x="427.55707476604084" y="423.46881084090785" as="targetPoint"/></mxGeometry></mxCell><mxCell id="34" value="" style="endArrow=none;html=1;rounded=0;fontSize=14;" parent="1" source="20" target="28" edge="1"><mxGeometry width="50" height="50" relative="1" as="geometry"><mxPoint x="537.75" y="284.80386415632506" as="sourcePoint"/><mxPoint x="452.9584311727938" y="299.91813729057253" as="targetPoint"/></mxGeometry></mxCell><mxCell id="44" value="&lt;span style=&quot;font-size: 18px&quot;&gt;GameState&lt;/span&gt;" style="rounded=0;whiteSpace=wrap;html=1;" parent="1" vertex="1"><mxGeometry x="-427.5" y="240" width="120" height="60" as="geometry"/></mxCell><mxCell id="T7bIl6d8-GQxwLn4p8uf-1" value="&lt;font style=&quot;font-size: 18px;&quot;&gt;ShipType&lt;/font&gt;" style="rounded=0;whiteSpace=wrap;html=1;" parent="1" vertex="1"><mxGeometry x="279" y="650" width="120" height="60" as="geometry"/></mxCell><mxCell id="T7bIl6d8-GQxwLn4p8uf-2" value="&lt;span style=&quot;font-size: 18px;&quot;&gt;User&lt;/span&gt;" style="rounded=0;whiteSpace=wrap;html=1;" parent="1" vertex="1"><mxGeometry x="279" y="459" width="120" height="60" as="geometry"/></mxCell><mxCell id="T7bIl6d8-GQxwLn4p8uf-3" value="&lt;font style=&quot;font-size: 14px&quot;&gt;username&lt;/font&gt;" style="ellipse;whiteSpace=wrap;html=1;fontSize=18;" parent="1" vertex="1"><mxGeometry x="426.5" y="435" width="90" height="30" as="geometry"/></mxCell><mxCell id="T7bIl6d8-GQxwLn4p8uf-5" value="&lt;span style=&quot;font-size: 14px&quot;&gt;password_hash&lt;/span&gt;" style="ellipse;whiteSpace=wrap;html=1;fontSize=18;" parent="1" vertex="1"><mxGeometry x="269" y="540" width="140" height="30" as="geometry"/></mxCell><mxCell id="T7bIl6d8-GQxwLn4p8uf-6" value="&lt;span style=&quot;font-size: 18px;&quot;&gt;Player&lt;/span&gt;" style="rounded=0;whiteSpace=wrap;html=1;" parent="1" vertex="1"><mxGeometry x="-57.5" y="460" width="120" height="60" as="geometry"/></mxCell><mxCell id="T7bIl6d8-GQxwLn4p8uf-7" value="&lt;span style=&quot;font-size: 14px;&quot;&gt;points&lt;/span&gt;" style="ellipse;whiteSpace=wrap;html=1;fontSize=18;" parent="1" vertex="1"><mxGeometry x="172.5" y="540" width="80" height="30" as="geometry"/></mxCell><mxCell id="T7bIl6d8-GQxwLn4p8uf-8" value="" style="endArrow=none;html=1;rounded=0;fontSize=14;" parent="1" source="T7bIl6d8-GQxwLn4p8uf-2" target="T7bIl6d8-GQxwLn4p8uf-3" edge="1"><mxGeometry width="50" height="50" relative="1" as="geometry"><mxPoint x="329" y="480" as="sourcePoint"/><mxPoint x="379" y="430" as="targetPoint"/></mxGeometry></mxCell><mxCell id="T7bIl6d8-GQxwLn4p8uf-9" value="" style="endArrow=none;html=1;rounded=0;fontSize=14;" parent="1" source="T7bIl6d8-GQxwLn4p8uf-2" target="T7bIl6d8-GQxwLn4p8uf-5" edge="1"><mxGeometry width="50" height="50" relative="1" as="geometry"><mxPoint x="259" y="498.3609448165239" as="sourcePoint"/><mxPoint x="178.86248274436048" y="496.17178126571093" as="targetPoint"/></mxGeometry></mxCell><mxCell id="T7bIl6d8-GQxwLn4p8uf-10" value="" style="endArrow=none;html=1;rounded=0;fontSize=14;" parent="1" source="T7bIl6d8-GQxwLn4p8uf-2" target="T7bIl6d8-GQxwLn4p8uf-7" edge="1"><mxGeometry width="50" height="50" relative="1" as="geometry"><mxPoint x="358.4844601409475" y="529.0000000000001" as="sourcePoint"/><mxPoint x="374.30258338324506" y="579.0338121745247" as="targetPoint"/></mxGeometry></mxCell><mxCell id="T7bIl6d8-GQxwLn4p8uf-11" value="Has" style="rhombus;whiteSpace=wrap;html=1;fontSize=14;" parent="1" vertex="1"><mxGeometry x="149" y="465" width="50" height="50" as="geometry"/></mxCell><mxCell id="T7bIl6d8-GQxwLn4p8uf-13" value="" style="endArrow=none;html=1;rounded=0;fontSize=14;endFill=0;startArrow=none;startFill=0;" parent="1" source="T7bIl6d8-GQxwLn4p8uf-2" target="T7bIl6d8-GQxwLn4p8uf-11" edge="1"><mxGeometry width="50" height="50" relative="1" as="geometry"><mxPoint x="319" y="530.0000000000001" as="sourcePoint"/><mxPoint x="319" y="590" as="targetPoint"/></mxGeometry></mxCell><mxCell id="T7bIl6d8-GQxwLn4p8uf-14" value="" style="endArrow=oval;html=1;rounded=0;fontSize=14;exitX=0;exitY=0.5;exitDx=0;exitDy=0;startArrow=none;startFill=0;endFill=1;" parent="1" source="T7bIl6d8-GQxwLn4p8uf-11" target="T7bIl6d8-GQxwLn4p8uf-6" edge="1"><mxGeometry width="50" height="50" relative="1" as="geometry"><mxPoint x="222.5" y="500.0000000000001" as="sourcePoint"/><mxPoint x="172.5" y="500.0000000000001" as="targetPoint"/></mxGeometry></mxCell><mxCell id="T7bIl6d8-GQxwLn4p8uf-15" value="&lt;span style=&quot;font-size: 14px;&quot;&gt;points&lt;/span&gt;" style="ellipse;whiteSpace=wrap;html=1;fontSize=18;" parent="1" vertex="1"><mxGeometry x="-127.5" y="540" width="70" height="30" as="geometry"/></mxCell><mxCell id="T7bIl6d8-GQxwLn4p8uf-16" value="" style="endArrow=none;html=1;rounded=0;fontSize=14;" parent="1" source="T7bIl6d8-GQxwLn4p8uf-15" target="T7bIl6d8-GQxwLn4p8uf-6" edge="1"><mxGeometry width="50" height="50" relative="1" as="geometry"><mxPoint x="122.5" y="500.0000000000001" as="sourcePoint"/><mxPoint x="72.5" y="500.0000000000001" as="targetPoint"/></mxGeometry></mxCell><mxCell id="T7bIl6d8-GQxwLn4p8uf-17" value="&lt;span style=&quot;font-size: 18px;&quot;&gt;Game&lt;/span&gt;" style="rounded=0;whiteSpace=wrap;html=1;" parent="1" vertex="1"><mxGeometry x="-57.5" y="240" width="120" height="60" as="geometry"/></mxCell><mxCell id="T7bIl6d8-GQxwLn4p8uf-18" value="N" style="text;html=1;strokeColor=none;fillColor=none;align=center;verticalAlign=middle;whiteSpace=wrap;rounded=0;fontSize=14;" parent="1" vertex="1"><mxGeometry x="92.5" y="465" width="20" height="30" as="geometry"/></mxCell><mxCell id="T7bIl6d8-GQxwLn4p8uf-19" value="1" style="text;html=1;strokeColor=none;fillColor=none;align=center;verticalAlign=middle;whiteSpace=wrap;rounded=0;fontSize=14;" parent="1" vertex="1"><mxGeometry x="199" y="465" width="20" height="30" as="geometry"/></mxCell><mxCell id="T7bIl6d8-GQxwLn4p8uf-20" value="Has" style="rhombus;whiteSpace=wrap;html=1;fontSize=14;" parent="1" vertex="1"><mxGeometry x="-22.5" y="350" width="50" height="50" as="geometry"/></mxCell><mxCell id="T7bIl6d8-GQxwLn4p8uf-21" value="" style="endArrow=none;html=1;rounded=0;fontSize=14;startArrow=none;startFill=0;endFill=0;" parent="1" source="T7bIl6d8-GQxwLn4p8uf-20" target="T7bIl6d8-GQxwLn4p8uf-17" edge="1"><mxGeometry width="50" height="50" relative="1" as="geometry"><mxPoint x="132.5" y="470.0000000000001" as="sourcePoint"/><mxPoint x="82.5" y="470.0000000000001" as="targetPoint"/></mxGeometry></mxCell><mxCell id="T7bIl6d8-GQxwLn4p8uf-22" value="" style="endArrow=oval;html=1;rounded=0;fontSize=14;startArrow=none;startFill=0;endFill=1;" parent="1" source="T7bIl6d8-GQxwLn4p8uf-20" target="T7bIl6d8-GQxwLn4p8uf-6" edge="1"><mxGeometry width="50" height="50" relative="1" as="geometry"><mxPoint x="222.5" y="500.0000000000001" as="sourcePoint"/><mxPoint x="172.5" y="500.0000000000001" as="targetPoint"/></mxGeometry></mxCell><mxCell id="T7bIl6d8-GQxwLn4p8uf-23" value="1" style="text;html=1;strokeColor=none;fillColor=none;align=center;verticalAlign=middle;whiteSpace=wrap;rounded=0;fontSize=14;" parent="1" vertex="1"><mxGeometry x="2.5" y="330" width="20" height="30" as="geometry"/></mxCell><mxCell id="T7bIl6d8-GQxwLn4p8uf-24" value="2" style="text;html=1;strokeColor=none;fillColor=none;align=center;verticalAlign=middle;whiteSpace=wrap;rounded=0;fontSize=14;" parent="1" vertex="1"><mxGeometry x="2.5" y="390" width="20" height="30" as="geometry"/></mxCell><mxCell id="T7bIl6d8-GQxwLn4p8uf-25" value="&lt;font style=&quot;font-size: 14px;&quot;&gt;&lt;u&gt;id&lt;/u&gt;&lt;/font&gt;" style="ellipse;whiteSpace=wrap;html=1;fontSize=18;" parent="1" vertex="1"><mxGeometry x="-97.5" y="150" width="90" height="30" as="geometry"/></mxCell><mxCell id="T7bIl6d8-GQxwLn4p8uf-26" value="" style="endArrow=none;html=1;rounded=0;fontSize=14;" parent="1" source="T7bIl6d8-GQxwLn4p8uf-17" target="T7bIl6d8-GQxwLn4p8uf-25" edge="1"><mxGeometry width="50" height="50" relative="1" as="geometry"><mxPoint x="12.5" y="360" as="sourcePoint"/><mxPoint x="12.5" y="310" as="targetPoint"/></mxGeometry></mxCell><mxCell id="T7bIl6d8-GQxwLn4p8uf-27" value="&lt;font style=&quot;font-size: 18px;&quot;&gt;Ship&lt;/font&gt;" style="rounded=0;whiteSpace=wrap;html=1;" parent="1" vertex="1"><mxGeometry x="-57.5" y="650" width="120" height="60" as="geometry"/></mxCell><mxCell id="T7bIl6d8-GQxwLn4p8uf-28" value="Has" style="rhombus;whiteSpace=wrap;html=1;fontSize=14;" parent="1" vertex="1"><mxGeometry x="-22.5" y="560" width="50" height="50" as="geometry"/></mxCell><mxCell id="T7bIl6d8-GQxwLn4p8uf-29" value="" style="endArrow=none;html=1;rounded=0;fontSize=14;" parent="1" source="T7bIl6d8-GQxwLn4p8uf-28" target="T7bIl6d8-GQxwLn4p8uf-6" edge="1"><mxGeometry width="50" height="50" relative="1" as="geometry"><mxPoint x="12.5" y="360" as="sourcePoint"/><mxPoint x="12.5" y="310" as="targetPoint"/></mxGeometry></mxCell><mxCell id="T7bIl6d8-GQxwLn4p8uf-30" value="" style="endArrow=none;html=1;rounded=0;fontSize=14;startArrow=oval;startFill=1;" parent="1" source="T7bIl6d8-GQxwLn4p8uf-27" target="T7bIl6d8-GQxwLn4p8uf-28" edge="1"><mxGeometry width="50" height="50" relative="1" as="geometry"><mxPoint x="12.5" y="410.0000000000001" as="sourcePoint"/><mxPoint x="12.5" y="470.0000000000001" as="targetPoint"/></mxGeometry></mxCell><mxCell id="T7bIl6d8-GQxwLn4p8uf-31" value="1" style="text;html=1;strokeColor=none;fillColor=none;align=center;verticalAlign=middle;whiteSpace=wrap;rounded=0;fontSize=14;" parent="1" vertex="1"><mxGeometry x="2.5" y="540" width="20" height="30" as="geometry"/></mxCell><mxCell id="T7bIl6d8-GQxwLn4p8uf-32" value="N" style="text;html=1;strokeColor=none;fillColor=none;align=center;verticalAlign=middle;whiteSpace=wrap;rounded=0;fontSize=14;" parent="1" vertex="1"><mxGeometry x="2.5" y="600" width="20" height="30" as="geometry"/></mxCell><mxCell id="T7bIl6d8-GQxwLn4p8uf-33" value="Has" style="rhombus;whiteSpace=wrap;html=1;fontSize=14;" parent="1" vertex="1"><mxGeometry x="149" y="655" width="50" height="50" as="geometry"/></mxCell><mxCell id="T7bIl6d8-GQxwLn4p8uf-36" value="" style="endArrow=oval;html=1;rounded=0;fontSize=14;startArrow=none;startFill=0;endFill=1;" parent="1" source="T7bIl6d8-GQxwLn4p8uf-33" target="T7bIl6d8-GQxwLn4p8uf-27" edge="1"><mxGeometry width="50" height="50" relative="1" as="geometry"><mxPoint x="12.5" y="660" as="sourcePoint"/><mxPoint x="12.5" y="620" as="targetPoint"/></mxGeometry></mxCell><mxCell id="T7bIl6d8-GQxwLn4p8uf-37" value="" style="endArrow=none;html=1;rounded=0;fontSize=14;" parent="1" source="T7bIl6d8-GQxwLn4p8uf-1" target="T7bIl6d8-GQxwLn4p8uf-33" edge="1"><mxGeometry width="50" height="50" relative="1" as="geometry"><mxPoint x="159" y="690" as="sourcePoint"/><mxPoint x="109" y="690" as="targetPoint"/></mxGeometry></mxCell><mxCell id="T7bIl6d8-GQxwLn4p8uf-38" value="&lt;span style=&quot;font-size: 14px;&quot;&gt;orientation&lt;/span&gt;" style="ellipse;whiteSpace=wrap;html=1;fontSize=18;" parent="1" vertex="1"><mxGeometry x="-157.5" y="770" width="90" height="30" as="geometry"/></mxCell><mxCell id="T7bIl6d8-GQxwLn4p8uf-40" value="" style="endArrow=none;html=1;rounded=0;fontSize=14;entryX=0.5;entryY=0;entryDx=0;entryDy=0;" parent="1" source="T7bIl6d8-GQxwLn4p8uf-27" target="80" edge="1"><mxGeometry width="50" height="50" relative="1" as="geometry"><mxPoint x="282.5" y="530.0000000000001" as="sourcePoint"/><mxPoint x="2.5" y="770" as="targetPoint"/></mxGeometry></mxCell><mxCell id="T7bIl6d8-GQxwLn4p8uf-41" value="" style="endArrow=none;html=1;rounded=0;fontSize=14;" parent="1" source="T7bIl6d8-GQxwLn4p8uf-27" target="T7bIl6d8-GQxwLn4p8uf-38" edge="1"><mxGeometry width="50" height="50" relative="1" as="geometry"><mxPoint x="1.696395835717567" y="720" as="sourcePoint"/><mxPoint x="-27.12913886048841" y="800.0442174422835" as="targetPoint"/></mxGeometry></mxCell><mxCell id="T7bIl6d8-GQxwLn4p8uf-46" value="&lt;span style=&quot;font-size: 14px;&quot;&gt;size&lt;/span&gt;" style="ellipse;whiteSpace=wrap;html=1;fontSize=18;" parent="1" vertex="1"><mxGeometry x="204" y="750" width="90" height="30" as="geometry"/></mxCell><mxCell id="T7bIl6d8-GQxwLn4p8uf-47" value="&lt;span style=&quot;font-size: 14px&quot;&gt;ship_name&lt;/span&gt;" style="ellipse;whiteSpace=wrap;html=1;fontSize=18;" parent="1" vertex="1"><mxGeometry x="294" y="780" width="90" height="30" as="geometry"/></mxCell><mxCell id="T7bIl6d8-GQxwLn4p8uf-48" value="&lt;span style=&quot;font-size: 14px;&quot;&gt;points&lt;/span&gt;" style="ellipse;whiteSpace=wrap;html=1;fontSize=18;" parent="1" vertex="1"><mxGeometry x="384" y="750" width="90" height="30" as="geometry"/></mxCell><mxCell id="T7bIl6d8-GQxwLn4p8uf-49" value="" style="endArrow=none;html=1;rounded=0;fontSize=14;" parent="1" source="T7bIl6d8-GQxwLn4p8uf-1" target="T7bIl6d8-GQxwLn4p8uf-46" edge="1"><mxGeometry width="50" height="50" relative="1" as="geometry"><mxPoint x="349" y="530.0000000000001" as="sourcePoint"/><mxPoint x="349" y="600" as="targetPoint"/></mxGeometry></mxCell><mxCell id="T7bIl6d8-GQxwLn4p8uf-51" value="" style="endArrow=none;html=1;rounded=0;fontSize=14;" parent="1" source="T7bIl6d8-GQxwLn4p8uf-1" target="T7bIl6d8-GQxwLn4p8uf-48" edge="1"><mxGeometry width="50" height="50" relative="1" as="geometry"><mxPoint x="359" y="720" as="sourcePoint"/><mxPoint x="359" y="760" as="targetPoint"/></mxGeometry></mxCell><mxCell id="T7bIl6d8-GQxwLn4p8uf-52" value="" style="endArrow=none;html=1;rounded=0;fontSize=14;" parent="1" source="T7bIl6d8-GQxwLn4p8uf-1" target="T7bIl6d8-GQxwLn4p8uf-47" edge="1"><mxGeometry width="50" height="50" relative="1" as="geometry"><mxPoint x="359" y="720" as="sourcePoint"/><mxPoint x="359" y="760" as="targetPoint"/></mxGeometry></mxCell><mxCell id="T7bIl6d8-GQxwLn4p8uf-53" value="&lt;span style=&quot;font-size: 14px;&quot;&gt;lives&lt;/span&gt;" style="ellipse;whiteSpace=wrap;html=1;fontSize=18;" parent="1" vertex="1"><mxGeometry x="82.5" y="770" width="90" height="30" as="geometry"/></mxCell><mxCell id="T7bIl6d8-GQxwLn4p8uf-54" value="" style="endArrow=none;html=1;rounded=0;fontSize=14;" parent="1" source="T7bIl6d8-GQxwLn4p8uf-27" target="T7bIl6d8-GQxwLn4p8uf-53" edge="1"><mxGeometry width="50" height="50" relative="1" as="geometry"><mxPoint x="-47.5" y="690" as="sourcePoint"/><mxPoint x="-107.5" y="690" as="targetPoint"/></mxGeometry></mxCell><mxCell id="T7bIl6d8-GQxwLn4p8uf-55" value="&lt;span style=&quot;font-size: 18px;&quot;&gt;Shot&lt;/span&gt;" style="rounded=0;whiteSpace=wrap;html=1;" parent="1" vertex="1"><mxGeometry x="-427.5" y="460" width="120" height="60" as="geometry"/></mxCell><mxCell id="T7bIl6d8-GQxwLn4p8uf-56" value="Made By" style="rhombus;whiteSpace=wrap;html=1;fontSize=14;" parent="1" vertex="1"><mxGeometry x="-227.5" y="450" width="80" height="80" as="geometry"/></mxCell><mxCell id="T7bIl6d8-GQxwLn4p8uf-57" value="&lt;span style=&quot;font-size: 14px;&quot;&gt;result&lt;/span&gt;" style="ellipse;whiteSpace=wrap;html=1;fontSize=18;" parent="1" vertex="1"><mxGeometry x="-537.5" y="475" width="70" height="30" as="geometry"/></mxCell><mxCell id="T7bIl6d8-GQxwLn4p8uf-58" value="" style="endArrow=none;html=1;rounded=0;fontSize=14;" parent="1" source="T7bIl6d8-GQxwLn4p8uf-57" target="T7bIl6d8-GQxwLn4p8uf-55" edge="1"><mxGeometry width="50" height="50" relative="1" as="geometry"><mxPoint x="-93.8464354157536" y="572.3078838911315" as="sourcePoint"/><mxPoint x="-31.617647058823422" y="530" as="targetPoint"/></mxGeometry></mxCell><mxCell id="T7bIl6d8-GQxwLn4p8uf-59" value="" style="endArrow=oval;html=1;rounded=0;fontSize=14;startArrow=none;startFill=0;endFill=1;" parent="1" source="T7bIl6d8-GQxwLn4p8uf-56" target="T7bIl6d8-GQxwLn4p8uf-55" edge="1"><mxGeometry width="50" height="50" relative="1" as="geometry"><mxPoint x="122.5" y="500" as="sourcePoint"/><mxPoint x="72.5" y="500" as="targetPoint"/></mxGeometry></mxCell><mxCell id="T7bIl6d8-GQxwLn4p8uf-60" value="" style="endArrow=none;html=1;rounded=0;fontSize=14;" parent="1" source="T7bIl6d8-GQxwLn4p8uf-6" target="T7bIl6d8-GQxwLn4p8uf-56" edge="1"><mxGeometry width="50" height="50" relative="1" as="geometry"><mxPoint x="-217.5" y="500" as="sourcePoint"/><mxPoint x="-187.5" y="490" as="targetPoint"/></mxGeometry></mxCell><mxCell id="T7bIl6d8-GQxwLn4p8uf-61" value="1" style="text;html=1;strokeColor=none;fillColor=none;align=center;verticalAlign=middle;whiteSpace=wrap;rounded=0;fontSize=14;" parent="1" vertex="1"><mxGeometry x="-157.5" y="465" width="20" height="30" as="geometry"/></mxCell><mxCell id="T7bIl6d8-GQxwLn4p8uf-62" value="N" style="text;html=1;strokeColor=none;fillColor=none;align=center;verticalAlign=middle;whiteSpace=wrap;rounded=0;fontSize=14;" parent="1" vertex="1"><mxGeometry x="-237.5" y="465" width="20" height="30" as="geometry"/></mxCell><mxCell id="T7bIl6d8-GQxwLn4p8uf-63" value="&lt;span style=&quot;font-size: 14px;&quot;&gt;coordinate&lt;/span&gt;" style="ellipse;whiteSpace=wrap;html=1;fontSize=18;" parent="1" vertex="1"><mxGeometry x="-417.5" y="560" width="100" height="30" as="geometry"/></mxCell><mxCell id="T7bIl6d8-GQxwLn4p8uf-64" value="&lt;span style=&quot;font-size: 14px;&quot;&gt;row&lt;/span&gt;" style="ellipse;whiteSpace=wrap;html=1;fontSize=18;" parent="1" vertex="1"><mxGeometry x="-360" y="620" width="70" height="30" as="geometry"/></mxCell><mxCell id="T7bIl6d8-GQxwLn4p8uf-65" value="&lt;span style=&quot;font-size: 14px;&quot;&gt;col&lt;/span&gt;" style="ellipse;whiteSpace=wrap;html=1;fontSize=18;" parent="1" vertex="1"><mxGeometry x="-440" y="620" width="70" height="30" as="geometry"/></mxCell><mxCell id="T7bIl6d8-GQxwLn4p8uf-66" value="" style="endArrow=none;html=1;rounded=0;fontSize=14;" parent="1" source="T7bIl6d8-GQxwLn4p8uf-63" target="T7bIl6d8-GQxwLn4p8uf-64" edge="1"><mxGeometry width="50" height="50" relative="1" as="geometry"><mxPoint x="-347.5" y="550" as="sourcePoint"/><mxPoint x="-347.5" y="610" as="targetPoint"/></mxGeometry></mxCell><mxCell id="T7bIl6d8-GQxwLn4p8uf-67" value="" style="endArrow=none;html=1;rounded=0;fontSize=14;" parent="1" source="T7bIl6d8-GQxwLn4p8uf-63" target="T7bIl6d8-GQxwLn4p8uf-65" edge="1"><mxGeometry width="50" height="50" relative="1" as="geometry"><mxPoint x="-354.8896688247937" y="639.9161833685655" as="sourcePoint"/><mxPoint x="-385.1664818944039" y="700.3329637888082" as="targetPoint"/></mxGeometry></mxCell><mxCell id="T7bIl6d8-GQxwLn4p8uf-68" value="" style="endArrow=none;html=1;rounded=0;fontSize=14;" parent="1" source="T7bIl6d8-GQxwLn4p8uf-63" target="T7bIl6d8-GQxwLn4p8uf-55" edge="1"><mxGeometry width="50" height="50" relative="1" as="geometry"><mxPoint x="-457.5" y="500" as="sourcePoint"/><mxPoint x="-417.5" y="500" as="targetPoint"/></mxGeometry></mxCell><mxCell id="T7bIl6d8-GQxwLn4p8uf-69" value="1" style="text;html=1;strokeColor=none;fillColor=none;align=center;verticalAlign=middle;whiteSpace=wrap;rounded=0;fontSize=14;" parent="1" vertex="1"><mxGeometry x="189" y="650" width="20" height="30" as="geometry"/></mxCell><mxCell id="T7bIl6d8-GQxwLn4p8uf-70" value="N" style="text;html=1;strokeColor=none;fillColor=none;align=center;verticalAlign=middle;whiteSpace=wrap;rounded=0;fontSize=14;" parent="1" vertex="1"><mxGeometry x="139" y="650" width="20" height="30" as="geometry"/></mxCell><mxCell id="T7bIl6d8-GQxwLn4p8uf-71" value="&lt;font style=&quot;font-size: 14px;&quot;&gt;&lt;u&gt;id&lt;/u&gt;&lt;/font&gt;" style="ellipse;whiteSpace=wrap;html=1;fontSize=18;" parent="1" vertex="1"><mxGeometry x="-207.5" y="665" width="90" height="30" as="geometry"/></mxCell><mxCell id="T7bIl6d8-GQxwLn4p8uf-72" value="" style="endArrow=none;html=1;rounded=0;fontSize=14;" parent="1" source="T7bIl6d8-GQxwLn4p8uf-27" target="T7bIl6d8-GQxwLn4p8uf-71" edge="1"><mxGeometry width="50" height="50" relative="1" as="geometry"><mxPoint x="-20.357142857142662" y="720" as="sourcePoint"/><mxPoint x="-87.06770117440783" y="780.9096402027203" as="targetPoint"/></mxGeometry></mxCell><mxCell id="T7bIl6d8-GQxwLn4p8uf-74" value="&lt;font style=&quot;font-size: 14px&quot;&gt;round&lt;/font&gt;" style="ellipse;whiteSpace=wrap;html=1;fontSize=18;" parent="1" vertex="1"><mxGeometry x="-307.5" y="395" width="90" height="30" as="geometry"/></mxCell><mxCell id="T7bIl6d8-GQxwLn4p8uf-75" value="" style="endArrow=none;html=1;rounded=0;fontSize=14;" parent="1" source="T7bIl6d8-GQxwLn4p8uf-55" target="T7bIl6d8-GQxwLn4p8uf-74" edge="1"><mxGeometry width="50" height="50" relative="1" as="geometry"><mxPoint x="-457.5" y="500" as="sourcePoint"/><mxPoint x="-417.5" y="500" as="targetPoint"/></mxGeometry></mxCell><mxCell id="T7bIl6d8-GQxwLn4p8uf-76" value="" style="rounded=0;whiteSpace=wrap;html=1;fillColor=none;" parent="1" vertex="1"><mxGeometry x="-422.5" y="465" width="110" height="50" as="geometry"/></mxCell><mxCell id="T7bIl6d8-GQxwLn4p8uf-77" value="" style="rounded=0;whiteSpace=wrap;html=1;fillColor=none;" parent="1" vertex="1"><mxGeometry x="-52.5" y="465" width="110" height="50" as="geometry"/></mxCell><mxCell id="T7bIl6d8-GQxwLn4p8uf-86" value="" style="rhombus;whiteSpace=wrap;html=1;fontSize=14;fillColor=none;" parent="1" vertex="1"><mxGeometry x="154" y="470" width="40" height="40" as="geometry"/></mxCell><mxCell id="T7bIl6d8-GQxwLn4p8uf-87" value="" style="rhombus;whiteSpace=wrap;html=1;fontSize=14;fillColor=none;" parent="1" vertex="1"><mxGeometry x="-17.5" y="355" width="40" height="40" as="geometry"/></mxCell><mxCell id="T7bIl6d8-GQxwLn4p8uf-89" value="" style="rhombus;whiteSpace=wrap;html=1;fontSize=14;fillColor=none;" parent="1" vertex="1"><mxGeometry x="-222.5" y="455" width="70" height="70" as="geometry"/></mxCell><mxCell id="7" value="Has" style="rhombus;whiteSpace=wrap;html=1;fontSize=14;" parent="1" vertex="1"><mxGeometry x="149" y="245" width="50" height="50" as="geometry"/></mxCell><mxCell id="11" value="" style="endArrow=oval;html=1;rounded=0;fontSize=14;entryX=1;entryY=0.5;entryDx=0;entryDy=0;exitX=0;exitY=0.5;exitDx=0;exitDy=0;startArrow=none;startFill=0;endFill=1;" parent="1" source="7" target="T7bIl6d8-GQxwLn4p8uf-17" edge="1"><mxGeometry width="50" height="50" relative="1" as="geometry"><mxPoint x="12.5" y="359.9999999999999" as="sourcePoint"/><mxPoint x="12.5" y="309.9999999999999" as="targetPoint"/></mxGeometry></mxCell><mxCell id="6" value="" style="rhombus;whiteSpace=wrap;html=1;fontSize=14;fillColor=none;" parent="1" vertex="1"><mxGeometry x="154" y="250" width="40" height="40" as="geometry"/></mxCell><mxCell id="13" value="1" style="text;html=1;strokeColor=none;fillColor=none;align=center;verticalAlign=middle;whiteSpace=wrap;rounded=0;fontSize=14;" parent="1" vertex="1"><mxGeometry x="134" y="245" width="20" height="30" as="geometry"/></mxCell><mxCell id="14" value="1" style="text;html=1;strokeColor=none;fillColor=none;align=center;verticalAlign=middle;whiteSpace=wrap;rounded=0;fontSize=14;" parent="1" vertex="1"><mxGeometry x="194" y="245" width="20" height="30" as="geometry"/></mxCell><mxCell id="16" value="&lt;span style=&quot;font-size: 14px&quot;&gt;name&lt;/span&gt;" style="ellipse;whiteSpace=wrap;html=1;fontSize=18;" parent="1" vertex="1"><mxGeometry x="12.5" y="150" width="90" height="30" as="geometry"/></mxCell><mxCell id="17" value="" style="endArrow=none;html=1;rounded=0;fontSize=14;" parent="1" source="T7bIl6d8-GQxwLn4p8uf-17" target="16" edge="1"><mxGeometry width="50" height="50" relative="1" as="geometry"><mxPoint x="12.5" y="249.9999999999999" as="sourcePoint"/><mxPoint x="12.5" y="189.9999999999999" as="targetPoint"/></mxGeometry></mxCell><mxCell id="19" value="&lt;span style=&quot;font-size: 18px&quot;&gt;GameConfig&lt;/span&gt;" style="rounded=0;whiteSpace=wrap;html=1;" parent="1" vertex="1"><mxGeometry x="279" y="240" width="120" height="60" as="geometry"/></mxCell><mxCell id="20" value="" style="rounded=0;whiteSpace=wrap;html=1;fillColor=none;" parent="1" vertex="1"><mxGeometry x="284" y="245" width="110" height="50" as="geometry"/></mxCell><mxCell id="21" value="Has" style="rhombus;whiteSpace=wrap;html=1;fontSize=14;" parent="1" vertex="1"><mxGeometry x="-212.5" y="245" width="50" height="50" as="geometry"/></mxCell><mxCell id="22" value="" style="rhombus;whiteSpace=wrap;html=1;fontSize=14;fillColor=none;" parent="1" vertex="1"><mxGeometry x="-207.5" y="250" width="40" height="40" as="geometry"/></mxCell><mxCell id="23" value="1" style="text;html=1;strokeColor=none;fillColor=none;align=center;verticalAlign=middle;whiteSpace=wrap;rounded=0;fontSize=14;" parent="1" vertex="1"><mxGeometry x="-227.5" y="245" width="20" height="30" as="geometry"/></mxCell><mxCell id="24" value="1" style="text;html=1;strokeColor=none;fillColor=none;align=center;verticalAlign=middle;whiteSpace=wrap;rounded=0;fontSize=14;" parent="1" vertex="1"><mxGeometry x="-167.5" y="245" width="20" height="30" as="geometry"/></mxCell><mxCell id="25" value="" style="endArrow=none;html=1;rounded=0;fontSize=14;entryX=0;entryY=0.5;entryDx=0;entryDy=0;exitX=1;exitY=0.5;exitDx=0;exitDy=0;startArrow=oval;startFill=1;" parent="1" source="44" target="21" edge="1"><mxGeometry width="50" height="50" relative="1" as="geometry"><mxPoint x="-210" y="320" as="sourcePoint"/><mxPoint x="-177.5" y="350" as="targetPoint"/></mxGeometry></mxCell><mxCell id="27" value="" style="endArrow=oval;html=1;rounded=0;fontSize=14;exitX=1;exitY=0.5;exitDx=0;exitDy=0;entryX=0;entryY=0.5;entryDx=0;entryDy=0;startArrow=none;startFill=0;endFill=1;" parent="1" source="21" target="T7bIl6d8-GQxwLn4p8uf-17" edge="1"><mxGeometry width="50" height="50" relative="1" as="geometry"><mxPoint x="-237.5" y="280" as="sourcePoint"/><mxPoint x="-172.5" y="280" as="targetPoint"/></mxGeometry></mxCell><mxCell id="28" value="&lt;span style=&quot;font-size: 14px&quot;&gt;grid_size&lt;/span&gt;" style="ellipse;whiteSpace=wrap;html=1;fontSize=18;" parent="1" vertex="1"><mxGeometry x="194" y="180" width="70" height="30" as="geometry"/></mxCell><mxCell id="29" value="&lt;span style=&quot;font-size: 14px&quot;&gt;shots_per_round&lt;/span&gt;" style="ellipse;whiteSpace=wrap;html=1;fontSize=18;" parent="1" vertex="1"><mxGeometry x="354" y="130" width="130" height="30" as="geometry"/></mxCell><mxCell id="30" value="&lt;span style=&quot;font-size: 14px&quot;&gt;max_time_for_layout_phase&lt;/span&gt;" style="ellipse;whiteSpace=wrap;html=1;fontSize=18;" parent="1" vertex="1"><mxGeometry x="426.5" y="190" width="192.5" height="40" as="geometry"/></mxCell><mxCell id="31" value="&lt;span style=&quot;font-size: 14px&quot;&gt;max_time_per_round&lt;/span&gt;" style="ellipse;whiteSpace=wrap;html=1;fontSize=18;" parent="1" vertex="1"><mxGeometry x="185.25" y="130" width="152.5" height="30" as="geometry"/></mxCell><mxCell id="36" value="&lt;span style=&quot;font-size: 14px;&quot;&gt;winner&lt;/span&gt;" style="ellipse;whiteSpace=wrap;html=1;fontSize=18;" parent="1" vertex="1"><mxGeometry x="-550" y="255" width="80" height="30" as="geometry"/></mxCell><mxCell id="38" value="&lt;span style=&quot;font-size: 14px&quot;&gt;turn&lt;/span&gt;" style="ellipse;whiteSpace=wrap;html=1;fontSize=18;" parent="1" vertex="1"><mxGeometry x="-490" y="160" width="62.5" height="30" as="geometry"/></mxCell><mxCell id="40" value="&lt;span style=&quot;font-size: 14px&quot;&gt;round&lt;/span&gt;" style="ellipse;whiteSpace=wrap;html=1;fontSize=18;" parent="1" vertex="1"><mxGeometry x="-541.25" y="200" width="62.5" height="30" as="geometry"/></mxCell><mxCell id="42" value="&lt;span style=&quot;font-size: 14px&quot;&gt;phase&lt;/span&gt;" style="ellipse;whiteSpace=wrap;html=1;fontSize=18;" parent="1" vertex="1"><mxGeometry x="-398.75" y="150" width="62.5" height="30" as="geometry"/></mxCell><mxCell id="46" value="Has" style="rhombus;whiteSpace=wrap;html=1;fontSize=14;" parent="1" vertex="1"><mxGeometry x="760" y="464" width="50" height="50" as="geometry"/></mxCell><mxCell id="48" value="" style="endArrow=oval;html=1;rounded=0;fontSize=14;exitX=0.5;exitY=0;exitDx=0;exitDy=0;entryX=1;entryY=0.5;entryDx=0;entryDy=0;edgeStyle=orthogonalEdgeStyle;startArrow=none;startFill=0;endFill=1;" parent="1" source="46" target="19" edge="1"><mxGeometry width="50" height="50" relative="1" as="geometry"><mxPoint x="258.9999999999998" y="690" as="sourcePoint"/><mxPoint x="376.5" y="270" as="targetPoint"/></mxGeometry></mxCell><mxCell id="49" value="" style="endArrow=oval;html=1;rounded=0;fontSize=14;exitX=0.5;exitY=1;exitDx=0;exitDy=0;edgeStyle=orthogonalEdgeStyle;entryX=1;entryY=0.5;entryDx=0;entryDy=0;startArrow=none;startFill=0;endFill=1;" parent="1" source="46" target="T7bIl6d8-GQxwLn4p8uf-1" edge="1"><mxGeometry width="50" height="50" relative="1" as="geometry"><mxPoint x="591.5" y="475" as="sourcePoint"/><mxPoint x="426.5" y="630" as="targetPoint"/></mxGeometry></mxCell><mxCell id="50" value="N" style="text;html=1;strokeColor=none;fillColor=none;align=center;verticalAlign=middle;whiteSpace=wrap;rounded=0;fontSize=14;" parent="1" vertex="1"><mxGeometry x="787" y="446" width="20" height="30" as="geometry"/></mxCell><mxCell id="51" value="N" style="text;html=1;strokeColor=none;fillColor=none;align=center;verticalAlign=middle;whiteSpace=wrap;rounded=0;fontSize=14;" parent="1" vertex="1"><mxGeometry x="790" y="504" width="20" height="30" as="geometry"/></mxCell><mxCell id="45" value="" style="rounded=0;whiteSpace=wrap;html=1;fillColor=none;" parent="1" vertex="1"><mxGeometry x="-422.5" y="245" width="110" height="50" as="geometry"/></mxCell><mxCell id="12" value="" style="endArrow=oval;html=1;rounded=0;fontSize=14;exitX=1;exitY=0.5;exitDx=0;exitDy=0;entryX=0;entryY=0.5;entryDx=0;entryDy=0;endFill=1;" parent="1" source="7" target="19" edge="1"><mxGeometry width="50" height="50" relative="1" as="geometry"><mxPoint x="184" y="279.9999999999999" as="sourcePoint"/><mxPoint x="256.5" y="300" as="targetPoint"/></mxGeometry></mxCell><mxCell id="52" value="&lt;font style=&quot;font-size: 14px;&quot;&gt;&lt;u&gt;id&lt;/u&gt;&lt;/font&gt;" style="ellipse;whiteSpace=wrap;html=1;fontSize=18;" parent="1" vertex="1"><mxGeometry x="-112.5" y="410" width="90" height="30" as="geometry"/></mxCell><mxCell id="55" value="&lt;font style=&quot;font-size: 14px;&quot;&gt;&lt;u&gt;id&lt;/u&gt;&lt;/font&gt;" style="ellipse;whiteSpace=wrap;html=1;fontSize=18;" parent="1" vertex="1"><mxGeometry x="-412.5" y="370" width="90" height="30" as="geometry"/></mxCell><mxCell id="57" value="&lt;font style=&quot;font-size: 14px;&quot;&gt;&lt;u&gt;id&lt;/u&gt;&lt;/font&gt;" style="ellipse;whiteSpace=wrap;html=1;fontSize=18;" parent="1" vertex="1"><mxGeometry x="294" y="600" width="90" height="30" as="geometry"/></mxCell><mxCell id="58" value="" style="endArrow=none;html=1;rounded=0;fontSize=14;" parent="1" source="T7bIl6d8-GQxwLn4p8uf-1" target="57" edge="1"><mxGeometry width="50" height="50" relative="1" as="geometry"><mxPoint x="349" y="660" as="sourcePoint"/><mxPoint x="349" y="620" as="targetPoint"/></mxGeometry></mxCell><mxCell id="59" value="&lt;span style=&quot;font-size: 14px&quot;&gt;quantity&lt;/span&gt;" style="ellipse;whiteSpace=wrap;html=1;fontSize=18;" parent="1" vertex="1"><mxGeometry x="409" y="610" width="90" height="30" as="geometry"/></mxCell><mxCell id="60" value="" style="endArrow=none;html=1;rounded=0;fontSize=14;" parent="1" source="T7bIl6d8-GQxwLn4p8uf-1" target="59" edge="1"><mxGeometry width="50" height="50" relative="1" as="geometry"><mxPoint x="380.7647058823529" y="720" as="sourcePoint"/><mxPoint x="424.0230947019188" y="760.8551449962567" as="targetPoint"/></mxGeometry></mxCell><mxCell id="61" value="&lt;span style=&quot;font-size: 14px&quot;&gt;&lt;u&gt;id&lt;/u&gt;&lt;/span&gt;" style="ellipse;whiteSpace=wrap;html=1;fontSize=18;" parent="1" vertex="1"><mxGeometry x="370" y="380" width="80" height="30" as="geometry"/></mxCell><mxCell id="62" value="" style="endArrow=none;html=1;rounded=0;fontSize=14;" parent="1" source="T7bIl6d8-GQxwLn4p8uf-2" target="61" edge="1"><mxGeometry width="50" height="50" relative="1" as="geometry"><mxPoint x="325.063829787234" y="469" as="sourcePoint"/><mxPoint x="285.56602165793674" y="419.49608047794754" as="targetPoint"/></mxGeometry></mxCell><mxCell id="66" value="Created&lt;br&gt;By" style="rhombus;whiteSpace=wrap;html=1;fontSize=14;" parent="1" vertex="1"><mxGeometry x="132.75" y="335" width="80" height="80" as="geometry"/></mxCell><mxCell id="68" value="1" style="text;html=1;strokeColor=none;fillColor=none;align=center;verticalAlign=middle;whiteSpace=wrap;rounded=0;fontSize=14;" parent="1" vertex="1"><mxGeometry x="209" y="350" width="20" height="30" as="geometry"/></mxCell><mxCell id="69" value="N" style="text;html=1;strokeColor=none;fillColor=none;align=center;verticalAlign=middle;whiteSpace=wrap;rounded=0;fontSize=14;" parent="1" vertex="1"><mxGeometry x="117.5" y="350" width="20" height="30" as="geometry"/></mxCell><mxCell id="74" value="" style="endArrow=none;html=1;rounded=0;fontSize=14;exitX=0;exitY=0.5;exitDx=0;exitDy=0;edgeStyle=orthogonalEdgeStyle;entryX=0.838;entryY=0.992;entryDx=0;entryDy=0;entryPerimeter=0;" parent="1" source="66" target="T7bIl6d8-GQxwLn4p8uf-17" edge="1"><mxGeometry width="50" height="50" relative="1" as="geometry"><mxPoint x="28.21428571428578" y="250" as="sourcePoint"/><mxPoint x="59.75995394335746" y="189.77645156268136" as="targetPoint"/><Array as="points"><mxPoint x="43" y="375"/></Array></mxGeometry></mxCell><mxCell id="75" value="" style="endArrow=none;html=1;rounded=0;fontSize=14;entryX=1;entryY=0.5;entryDx=0;entryDy=0;edgeStyle=orthogonalEdgeStyle;" parent="1" source="T7bIl6d8-GQxwLn4p8uf-2" target="66" edge="1"><mxGeometry width="50" height="50" relative="1" as="geometry"><mxPoint x="142.75" y="385" as="sourcePoint"/><mxPoint x="49.71428571428578" y="310" as="targetPoint"/><Array as="points"><mxPoint x="339" y="375"/></Array></mxGeometry></mxCell><mxCell id="76" value="&lt;font style=&quot;font-size: 14px&quot;&gt;email&lt;/font&gt;" style="ellipse;whiteSpace=wrap;html=1;fontSize=18;" parent="1" vertex="1"><mxGeometry x="425" y="540" width="90" height="30" as="geometry"/></mxCell><mxCell id="77" value="" style="endArrow=none;html=1;rounded=0;fontSize=14;" parent="1" source="T7bIl6d8-GQxwLn4p8uf-2" target="76" edge="1"><mxGeometry width="50" height="50" relative="1" as="geometry"><mxPoint x="371.6595744680849" y="469" as="sourcePoint"/><mxPoint x="409.0990554708196" y="419.4322364189147" as="targetPoint"/></mxGeometry></mxCell><mxCell id="78" value="&lt;span style=&quot;font-size: 14px&quot;&gt;phase_expiration_time&lt;/span&gt;" style="ellipse;whiteSpace=wrap;html=1;fontSize=18;" parent="1" vertex="1"><mxGeometry x="-312.5" y="170" width="162.5" height="30" as="geometry"/></mxCell><mxCell id="80" value="&lt;span style=&quot;font-size: 14px;&quot;&gt;coordinate&lt;/span&gt;" style="ellipse;whiteSpace=wrap;html=1;fontSize=18;" parent="1" vertex="1"><mxGeometry x="-50" y="770" width="100" height="30" as="geometry"/></mxCell><mxCell id="81" value="&lt;span style=&quot;font-size: 14px;&quot;&gt;row&lt;/span&gt;" style="ellipse;whiteSpace=wrap;html=1;fontSize=18;" parent="1" vertex="1"><mxGeometry x="7.5" y="830" width="70" height="30" as="geometry"/></mxCell><mxCell id="82" value="&lt;span style=&quot;font-size: 14px;&quot;&gt;col&lt;/span&gt;" style="ellipse;whiteSpace=wrap;html=1;fontSize=18;" parent="1" vertex="1"><mxGeometry x="-72.5" y="830" width="70" height="30" as="geometry"/></mxCell><mxCell id="83" value="" style="endArrow=none;html=1;rounded=0;fontSize=14;" parent="1" source="80" target="81" edge="1"><mxGeometry width="50" height="50" relative="1" as="geometry"><mxPoint x="20" y="760" as="sourcePoint"/><mxPoint x="20" y="820" as="targetPoint"/></mxGeometry></mxCell><mxCell id="84" value="" style="endArrow=none;html=1;rounded=0;fontSize=14;" parent="1" source="80" target="82" edge="1"><mxGeometry width="50" height="50" relative="1" as="geometry"><mxPoint x="12.610331175206284" y="849.9161833685655" as="sourcePoint"/><mxPoint x="-17.666481894403887" y="910.3329637888082" as="targetPoint"/></mxGeometry></mxCell><mxCell id="-8BqUSmvTBT1fVNJS9ly-84" value="&lt;span style=&quot;font-size: 18px;&quot;&gt;RefreshToken&lt;/span&gt;" style="rounded=0;whiteSpace=wrap;html=1;" parent="1" vertex="1"><mxGeometry x="600" y="460" width="120" height="60" as="geometry"/></mxCell><mxCell id="-8BqUSmvTBT1fVNJS9ly-85" value="&lt;span style=&quot;font-size: 14px;&quot;&gt;token_hash&lt;/span&gt;" style="ellipse;whiteSpace=wrap;html=1;fontSize=18;" parent="1" vertex="1"><mxGeometry x="560" y="560" width="90" height="30" as="geometry"/></mxCell><mxCell id="-8BqUSmvTBT1fVNJS9ly-86" value="&lt;span style=&quot;font-size: 14px&quot;&gt;&lt;u&gt;id&lt;/u&gt;&lt;/span&gt;" style="ellipse;whiteSpace=wrap;html=1;fontSize=18;" parent="1" vertex="1"><mxGeometry x="619" y="385" width="80" height="30" as="geometry"/></mxCell><mxCell id="-8BqUSmvTBT1fVNJS9ly-87" value="&lt;span style=&quot;font-size: 14px;&quot;&gt;expiration_date&lt;/span&gt;" style="ellipse;whiteSpace=wrap;html=1;fontSize=18;" parent="1" vertex="1"><mxGeometry x="660" y="560" width="110" height="30" as="geometry"/></mxCell><mxCell id="-8BqUSmvTBT1fVNJS9ly-88" value="" style="endArrow=none;html=1;rounded=0;fontSize=14;" parent="1" source="-8BqUSmvTBT1fVNJS9ly-84" target="-8BqUSmvTBT1fVNJS9ly-86" edge="1"><mxGeometry width="50" height="50" relative="1" as="geometry"><mxPoint x="371.63994208580516" y="469" as="sourcePoint"/><mxPoint x="409.0508579598254" y="419.4271048058779" as="targetPoint"/></mxGeometry></mxCell><mxCell id="-8BqUSmvTBT1fVNJS9ly-89" value="" style="endArrow=none;html=1;rounded=0;fontSize=14;" parent="1" source="-8BqUSmvTBT1fVNJS9ly-84" target="-8BqUSmvTBT1fVNJS9ly-85" edge="1"><mxGeometry width="50" height="50" relative="1" as="geometry"><mxPoint x="660" y="469" as="sourcePoint"/><mxPoint x="660" y="425" as="targetPoint"/></mxGeometry></mxCell><mxCell id="-8BqUSmvTBT1fVNJS9ly-90" value="" style="endArrow=none;html=1;rounded=0;fontSize=14;" parent="1" source="-8BqUSmvTBT1fVNJS9ly-84" target="-8BqUSmvTBT1fVNJS9ly-87" edge="1"><mxGeometry width="50" height="50" relative="1" as="geometry"><mxPoint x="638.5789365850851" y="529" as="sourcePoint"/><mxPoint x="605.4410196863873" y="575.4093442844073" as="targetPoint"/></mxGeometry></mxCell><mxCell id="-8BqUSmvTBT1fVNJS9ly-91" value="Has" style="rhombus;whiteSpace=wrap;html=1;fontSize=14;fillColor=none;" parent="1" vertex="1"><mxGeometry x="480" y="470" width="40" height="40" as="geometry"/></mxCell><mxCell id="-8BqUSmvTBT1fVNJS9ly-92" value="" style="endArrow=none;html=1;rounded=0;fontSize=14;endFill=0;startArrow=none;startFill=0;entryX=0;entryY=0.5;entryDx=0;entryDy=0;" parent="1" source="T7bIl6d8-GQxwLn4p8uf-2" target="-8BqUSmvTBT1fVNJS9ly-91" edge="1"><mxGeometry width="50" height="50" relative="1" as="geometry"><mxPoint x="289" y="499.3636363636365" as="sourcePoint"/><mxPoint x="208.84939759036115" y="499.8493975903614" as="targetPoint"/></mxGeometry></mxCell><mxCell id="-8BqUSmvTBT1fVNJS9ly-93" value="" style="endArrow=oval;html=1;rounded=0;fontSize=14;endFill=1;startArrow=none;startFill=0;exitX=1;exitY=0.5;exitDx=0;exitDy=0;" parent="1" source="-8BqUSmvTBT1fVNJS9ly-91" target="-8BqUSmvTBT1fVNJS9ly-84" edge="1"><mxGeometry width="50" height="50" relative="1" as="geometry"><mxPoint x="409" y="499.44444444444434" as="sourcePoint"/><mxPoint x="484" y="500" as="targetPoint"/></mxGeometry></mxCell></root></mxGraphModel></diagram><diagram id="DnFvCb5mkqGShR9LYlJn" name="system-architecture"><mxGraphModel dx="677" dy="408" grid="1" gridSize="10" guides="1" tooltips="1" connect="1" arrows="1" fold="1" page="1" pageScale="1" pageWidth="850" pageHeight="1100" math="0" shadow="0"><root><mxCell id="0"/><mxCell id="1" parent="0"/><mxCell id="lgmQdc4SCoEPfiZIhM-V-2" value="&lt;font style=&quot;&quot;&gt;&lt;span style=&quot;font-size: 18px;&quot;&gt;HTTP&lt;/span&gt;&lt;br&gt;&lt;font style=&quot;font-size: 12px;&quot;&gt;(Presentation Layer)&lt;/font&gt;&lt;br&gt;&lt;/font&gt;" style="rounded=0;whiteSpace=wrap;html=1;fillColor=#d5e8d4;strokeColor=#82b366;gradientColor=#97d077;" parent="1" vertex="1"><mxGeometry x="320" y="120" width="200" height="50" as="geometry"/></mxCell><mxCell id="lgmQdc4SCoEPfiZIhM-V-3" value="&lt;span style=&quot;font-size: 18px;&quot;&gt;Service&lt;br&gt;&lt;/span&gt;(Business Logic Layer)&lt;span style=&quot;font-size: 18px;&quot;&gt;&lt;br&gt;&lt;/span&gt;" style="rounded=0;whiteSpace=wrap;html=1;fillColor=#dae8fc;strokeColor=#6c8ebf;gradientColor=#7ea6e0;" parent="1" vertex="1"><mxGeometry x="320" y="180" width="200" height="50" as="geometry"/></mxCell><mxCell id="lgmQdc4SCoEPfiZIhM-V-4" value="&lt;span style=&quot;font-size: 18px;&quot;&gt;Repository&lt;br&gt;&lt;/span&gt;(Data Access Layer)&lt;span style=&quot;font-size: 18px;&quot;&gt;&lt;br&gt;&lt;/span&gt;" style="rounded=0;whiteSpace=wrap;html=1;fillColor=#f8cecc;strokeColor=#b85450;gradientColor=#ea6b66;" parent="1" vertex="1"><mxGeometry x="320" y="240" width="200" height="50" as="geometry"/></mxCell><mxCell id="nVxw3XfElfVHrRnSqrNV-1" style="edgeStyle=orthogonalEdgeStyle;rounded=0;orthogonalLoop=1;jettySize=auto;html=1;entryX=0.5;entryY=1;entryDx=0;entryDy=0;fontSize=12;startArrow=classic;startFill=1;" edge="1" parent="1" source="lgmQdc4SCoEPfiZIhM-V-5" target="lgmQdc4SCoEPfiZIhM-V-4"><mxGeometry relative="1" as="geometry"/></mxCell><mxCell id="lgmQdc4SCoEPfiZIhM-V-5" value="RDBMS" style="shape=datastore;whiteSpace=wrap;html=1;fontSize=18;fillColor=#fff2cc;strokeColor=#d6b656;gradientColor=#ffd966;verticalAlign=top;" parent="1" vertex="1"><mxGeometry x="385" y="330" width="70" height="90" as="geometry"/></mxCell><mxCell id="lgmQdc4SCoEPfiZIhM-V-12" value="DTOs" style="text;html=1;strokeColor=none;fillColor=none;align=center;verticalAlign=middle;whiteSpace=wrap;rounded=0;fontSize=18;" parent="1" vertex="1"><mxGeometry x="530" y="160" width="60" height="30" as="geometry"/></mxCell><mxCell id="lgmQdc4SCoEPfiZIhM-V-13" value="Domain/Entities" style="text;html=1;strokeColor=none;fillColor=none;align=center;verticalAlign=middle;whiteSpace=wrap;rounded=0;fontSize=18;" parent="1" vertex="1"><mxGeometry x="530" y="220" width="140" height="30" as="geometry"/></mxCell><mxCell id="nVxw3XfElfVHrRnSqrNV-2" style="edgeStyle=orthogonalEdgeStyle;rounded=0;orthogonalLoop=1;jettySize=auto;html=1;fontSize=12;startArrow=classic;startFill=1;" edge="1" parent="1"><mxGeometry relative="1" as="geometry"><mxPoint x="510" y="255" as="sourcePoint"/><mxPoint x="510" y="215" as="targetPoint"/></mxGeometry></mxCell><mxCell id="nVxw3XfElfVHrRnSqrNV-4" style="edgeStyle=orthogonalEdgeStyle;rounded=0;orthogonalLoop=1;jettySize=auto;html=1;fontSize=12;startArrow=classic;startFill=1;" edge="1" parent="1"><mxGeometry relative="1" as="geometry"><mxPoint x="510" y="195" as="sourcePoint"/><mxPoint x="510" y="155" as="targetPoint"/></mxGeometry></mxCell><mxCell id="nVxw3XfElfVHrRnSqrNV-6" value="" style="shape=image;verticalLabelPosition=bottom;labelBackgroundColor=default;verticalAlign=top;aspect=fixed;imageAspect=0;image=https://pluralsight2.imgix.net/paths/images/corespring-f9a00f4516.png;" vertex="1" parent="1"><mxGeometry x="320" y="120" width="40" height="40" as="geometry"/></mxCell><mxCell id="nVxw3XfElfVHrRnSqrNV-7" value="" style="shape=image;verticalLabelPosition=bottom;labelBackgroundColor=default;verticalAlign=top;aspect=fixed;imageAspect=0;image=https://upload.wikimedia.org/wikipedia/commons/thumb/2/29/Postgresql_elephant.svg/993px-Postgresql_elephant.svg.png;" vertex="1" parent="1"><mxGeometry x="405.46" y="386" width="29.07" height="30" as="geometry"/></mxCell><mxCell id="nVxw3XfElfVHrRnSqrNV-8" value="" style="shape=image;verticalLabelPosition=bottom;labelBackgroundColor=default;verticalAlign=top;aspect=fixed;imageAspect=0;image=data:image/png,iVBORw0KGgoAAAANSUhEUgAAAQsAAAC9CAYAAACksViOAAA4tklEQVR4Xu19CbgVxZV/3/fYt8f2QEAQBDWCgqASFVk1EHCJMW6JSdTMZ6LJxCROovkmy5iZ5D/R/CcmMYmTmEyMiVEyxl2I4MIuoEYQ0biAuIDIFhDkIbx3e05V16l76nR13/3d7vfq8um7t7u2PtX163N+59Rpz3MfJwEngVaTgO/7mey6W25utQ5dR04CTgLpk4AAipZlV65seWS8n77Re15dGgftxuwkkDYJSI3i6evv8fY882Ex9ux7r49K2zU4sEjbjLnxplIC/vqf/NjbvvB8r0NDMP4dL0nQSNPHgUWaZsuNNZUSyL5611f8Tbd91RdAIQyQuq6e/966yWm7mA5pG7Abr5NAmiSQ3Tjv0/6LX/+J13GAHLaf8byMV+95u1bMTNN1iLE6zSJtM+bGmxoJZDc/eR4AxR+8DgOkQgE44WUktQlg0fTmCP/Q3h6puRgHFmmaKjfWNEkgu3Pdh/3nvnSfAAqBEgIo5EciRvDVf2/TmDRdk9Ms0jRbbqypkAB4Oj7kr/zsMm16SGRQQ6dO090vj0/FBalBOs4iTbPlxpp4CfhN2wZnF523wqvvEawt1CpQtcC/guTcu2Fc4i+IDNCBRZpmy4010RIADqKh5Ylz1mQy9X0kL6E0CkFqogWCigWUSR3J6cyQRN9+bnBpkYCfPdg5u/TTz2SyBxs9AQSapEBSMwcYwSko88H2QVAvNWswNQNNy03jxtn+JCCjM1d86TFY/KO8uk6SnsD/KKGJkpHahUCMbFNXf9/mkWmRmAOLtMyUG2ciJaDCuP8MYdyn+wAU+EHFQpsdBECI0uF5ezcdk8gLswzKgUVaZsqNM3ESkECx9qafQxj3BTI6U32CWIrA/JDAAH/NOAuFHOLc/q3DE3dhEQNyYJGWmXLjTJwE/Bd+/kPv7d9/Uez3IOETOb4C4yl4nIVEEvhPeETef/NDibswBxZpmRI3zjRIILvhni/4b9x6HcZSRI4ZtQtbAUGE7lmbmj0iznWahjvTjTFREpBh3M996b8FUKB5kfuSMzkCWyQYOuUuchcjwr7fcmZIombXDcZJoEISyG7/22QZxk2BgoAC/UqDNQ0zBcciDrbs6wHxGd0rNLyqNuM4i6qK1zXeliQgw7hX/9PjXod+UlVA8lKrDobPlJy35cXSvlWvzm/aMTgNcnJgkYZZcmOsuQREGLe//NKVEMbdUUdn4qi0q0MdECiCYMB9qDabZO+mVJCcDixqfhu6ARQrAeAMWjUXhAzjXnLRWojMBP9ovcxJoSM01XcahKWDrog3BEO+6TmtcBzYOahYGdSivAOLWkjd9VmyBCAz9nX+mmt/XXIDRVZUYdzPQRh3fwzjNoKqSHvGXjFienBsoZSFcJ96+98ZUeSwalLcgUVNxO46LUUC4K68xH/1yzd62d29S6lfbB0Vxr0YwrhHiDBuDK7i7UgrJMdBBKfRFKFmR8QA/Ka3UhHF6cCi2DvIla+JBMD0+Ii/9oK7Mh2P3Ocder3B378FWMbqfSRQrLr2IW/v+g/rMG4RXKWiMbXioL6gaSJ/kmNodmB547wEFeE+fduBRfWm0rXcniQA7sqT/VXTFwBQHILrlnu//fe3HllNGUAY9y+9nYvOEhqFwVGqaEx9jPxGnpNuSTdME1Q4mB3jH9gyrJrXUqm2nWZRKUm6dqoiAXBXjvSXTlgNQCHaB0+EB0Y+fN7bWDUPAvAiP/Q2330Vpu3nFgb/HWVpUI8p86pqWfmgWQAf0gm4EZUAoypirEijDiwqIkbXSDUkAO7Kgf7iGQgUZhf73xlajT4hbf+XIYz7ev1+D9WJxQEizyA1YSMxqUaC563tZJs6eR/s7lON66lkmw4sKilN11bFJADuyp7ZJ2Y9lfEyfX0gAeg/+SRveuuIinWmGgJe5GP+y//xM5lkl3y01RARXGWQm5Yy3HvCNQ55PYfeB7dssj8OLJI9P+1ydKCSd4KsUw97HzwnXYoAGOY/YZI0vV1Rd6MK474fgcKGC3oy+Mk4NMBKhOHELew6ClSUObQv8ZqF20jWLpdjci9aeiGWXHqft/uBKYKnEBqFgAr6EcdgA1bFCE6Ztn/lZ5fQbNxyQUcFVAhNAE0QRXAGLw8KDtqq4nlKfhrtH9hxWHJnJRiZA4ukz1A7Gx+4K3/r7fzTHEVohkFCaRp+886+lRCN3O+x/NLHIYzb2BmKi9rog7s21EkNHApApHsVwUMBiyhqMz8UvkA+zqZelbiearbhzJBqSte1XZQEWtbc+H1vy81XeB1zFgZqFSENw2/qDLxGt6I6YIVl2v6nrngKYh26i3gHST4qtwUnJGXWK/EfAQS90BUSaEWEAIU0NRRKYPu8DTmslj1VjRspR05Y14FFJaTo2ihbAuCu/Ka38fpvCY3CZnbwYxCY1c1rbupSascANL2zT125HNyWvXFjmH7yK1Mil3VX9ULMkpDmQU0WqkKItug5ZtrInyLk+0Dyd546M6TUu83Vq5gEwF15hb/uk/9pMz2Cp3duhRmg4TeXdP8G+z0uXwFh3MNlGDfFAtGV0Abw8R/8DH6TT+T6ZyaIoX1YJKb5jUxzbiAVk2xlG3KaRWXl6VorUgJiBykAxf9EAYUkMyM+ftNO08dZQN+SQF19/X3e/k3HYhg3cVQEvaFmIb6T7m2BVZyHoFwFHU6onGia8hrNBxP/kmQHFgXcYK5IdSQA7sqJEMb9aBxQhMwPOpTsoc7FjEyl7f8LhHHPNjQKyimwBrUXA7UPxVvY+iXKSO60BWwoH6JPH0h+lm8HFsXcba5sxSQA7soTIIx7VRRQBA/4QNmP1C4OFkcK+ut/8mNI2/9xjM6UrSs7ICp0gjpAbO5U3FgWqQCpBig5SoUYuFsh0rt5X2PFhFulhhxYVEmwrtloCcCO0SH+inOfjAMKc0HlGAIDOA4UboYAL3KNv+m2r/IwbiMuAu0M0/oIcID6Rxmy6NFRe4ZegCYmiFVD+pJFW1wEp1szTgKGBMAL0Sv75FnLQWvojScwlJv+5hoFgoTQNjRgZA8VRApCHoyrIIz7pzRtvwYAqcGoD7EjdJQlPS+1AHbAUD0sk01BJqIvBRaJ5yxKYpPd/e8kUIoERBh3y8KZSzLZ3UeIVUcBwKZJcC+ICRiyBvNRhEel0vbfKoECPRVoeiDBSI5rN6c6h8qC8IbIauqAJidVXYo3OdAjG81wpJa+5BvVU/BxZkgKJqktDFGSi0svvy/z/qJxCAK446PQ6wuVP7BjYFxdGca95lqZth+hJeAImIKgFjICgOEWVYSmBgoBGsSLQRFLeV01hNG+9DhpX9psaRGnOW1SqFharZzTLFpN1O23IwkUyz8/l4dxY1RmlIYRJTHCW0Q+7FQY9xMijDviDT9G81xFoeSnBgSFBkbMBRKYqjVtvsToPAYYqXr+oT0NSb9DnGaR9BlqA+PLPn39L7xtt11Iw7g5UNDLtG1JjxCD9f6FMO4hEMa9ArwM3aSnQa12ylPwR7n1HGoBtHN+zOZGISYHVrWqDZrvCJJ/JX2qnWaR9BlK+fiyL9z8r/4rX7uaez6oKcIvMTa2QloRgu9ACDBryzDupZ9ekvFb+lCgMLQDi0yl0kDMCzQpOJ+JVTUeMM0iVl0xETHHuPhghqSAt3BgkfLFmOThg7vycojO/EGhLtJCr4WYIcbTWIVxL4Iw7iNF0BXlGegTnjow4vrklgTxgGqyFEHI6AsJVAlsYVSTg6a8h9jE5rckfi0mfoCF3kCuXLIkkN0472P+mjm/ozkpbLkpcovYnrcialOZQgnJDIqP4kX+CmHc4zA60xpEFfV0F+uXujktnIPRHlnsGkQYMhhNaLcKceEwt2qyZjA8GsdZJH2GUjg+mbZ/zZz7o0wPc73mlAMacMWBJYIEDagGQaA+ff1d3p5npnkZS+iF9jqQng01QTRCzmm3hjou3J2oQsgOzUnRZCg9x/tEe0YcJ8CReKKCXKrTLFK4GJM8ZHBXjvMXHy/S9uthxnEQUdwFrxPRhlxrkLb/vyCM+2IjOpOCAdMSOE7IgUIZQ7GI0RIkt0EbYX2F2s933msBvqS+OcnzKsbmNIukz1CKxgfuyiMhjHsR9XoED9vg+cn/0mP4PW6XKS8PvzsBL3I1pO3/igevIdUPbaEJqMUfqB4BEOAxeUidR2WAWwRUMbAqJsTjQfvSZbF/8Zf1hVOqMSQF5KbC0xTdjW6oiZWASNuffXzamox/4DCbWxTDtHnmKwoO1lyb8qEfRHuG6nYc9qbnH+wFHEVDoBvYPzZNglgCWqMopn5owQeYJAeh2yYdG1oL7wi8IaBZHOgwa1HwTpSEfpwZktCJSdOwZNr+x+c8BkAhIyoLMS3iXKd47ZFJb6BAy9a9wFXsOrzuiL5RKSS0CG0oQo9FooxqIS55r60dfYyczOeByXRs2JP0OXdmSNJnKOHj02n79y89jj7d85kTpV6WDNh676CXfWO7l+nmi/u37I0VaKpQbcEYn1rpNnOk2OsIEZopYjgdWBQ72668IYHsii/9AdP20xP5AquKEaPBdXyQ9Vo2bI6FiFIWNc2TGaVphLQD5ELYxeRb/8b5fGpNMYKqclkHFlUWcFtuvmX1db+EMO6LMJYi92TOEZr5Qrf5eQoM3JXqAVA0v/hGSKR8cSJvQDhIXUeXVQtdmk3wna5Zgygl6oYBQhYihI/DRpLSre+6H9FHffd9Sb9XHGeR9BlK6Pggbf/3IBu3DOPmMRGUkIwKxKLHbVpI6JgAipfCQCEXu0VGeTkJ4f5U9WykhzxHytDveI73zTUPG0/BQ8rlEES4d333vQmdaj0sBxZJn6EEjg/clZdBGPd3MZYibrFzDwZeTiEEp1xHygtySAAFf3R3iKArbO6PoLEgSzdzhehdpKqeEcmJiGBzn8S4VGRT6jzNfcH70mPp1OftBE61MSRnhiR9hhI2Psg69UkAitsRKGxEJpoWuNiD9ZZ71keZGvRSsQ1R79Br70OOynhBRPIA9ATGO4i/SFpy8FDgIE0ESmzyOnie2jykL619sDYCTSLQWuQH/3bqB0RMsj9Os0j2/CRqdBDGfSZk4/5TIRvD8u0qtYVz2zJjSaDY/a6V0Mx0zb1jKJInZCfoGsU1G2mGkMXM17euK9Y7W/hcsaF4JM8RANFV67vtTtRkWwbjwCLpM5SQ8UEY91gI415YyH6PQjwhceHcqHm0vL4LgGJPXucoUx5C2zzwYU4f5NyioWVQ5HSRU4XARmRSBcPUkMKciq1vr0v/dxIy1ZHDcGCR9BlKwPhkGPdjI9YCUGRhOCWbrnG7TvllCqDwd8YARS6nTUhCNi2DH6O/bUQkBQzeAZa3aRAUkPR35EqI1WG0mW0CqXaE/yX7U/LEJ/uy3OgqJQERxu0vnvEUAIVgDeps+zyo+zN4Agf/8Lv5pM2V5sexfHbrvnigUKsw0yVnhhhP60LUBtK5LA7/09UMnyaTJJ4TAKDqhWSNDVECVBXCvnQdLNOlX+I1CwcWlVpVbbAdGca96LzHwGToA0tcaqGUi7C5P/EYuk/DT2VxJviHH7qXRABF9u3teU0Pvk6ppkADrPS6jSQ11KKPIDNDeCDK4X8CY0i7ob4sfWriM8AnQnA27Ej6LeTAIukzVKPxqTDu+72mFSKMu2Mh7lEOArbftstBYJFh3AUChdcjOrG3zcQoRIwEA4ziMThjxHjElbNeN9WAOvfZVsgYa1nGgUUtpZ/QvlXa/nsgjHtGIZ6PQi8jar8I7vdoeSU+jDtfP1bikFSi520kJW8/qjw1JaL6pJZMZF+ALtpS6dj9H/mur9bnHcFZ6xlIYP/ZVdf+CtL2n1NINm6bxkFBIcozQk0PEcadb7+HISaR37Y70SwU02g82ekKhRP8nJHOn1gDsh/kI0in1HwIfbf1pcakA8F4W+q3Dv/u3Ht3Am8FY0gOLJI+Q608PgjjvgHCuK8sJhs3H2IUQNjiKOR+j4gw7rhLhx2nudMW/Z/HThhcIy+vFjaub4os+ljEYOR5C29hhIrHziHksujQsDtT10l4mhL9cWZIoqendQeXXXfLNwAo/i3K9IgyI0oZJWoWEijy2Q8xHURVNQhPpTlEcgrqhPiD5oPNBLH1FeWS1cdjiAwNYF0Gv1mKDFu7jtMsWlviCe1PhnGvveAmG1BQDwcO3xYzUWgchd7vsWZj6UCh9oXQmAcqWqHeo6cCQUCWtagKxGIwMl2J4rR9bIcex/ZkG7TtGJXEOCU2kXU9/NWE3hbGsJxmkYZZqvIYZTbutRfIMO6oGAkeN6E9GCSewrb/gw6daiaF7PeINUNIqDeWM7yaiqegW8JlOZs7Uz3i8ZTNK6LPCT6DcRTWccZoFFhft9l16MtVnuKKNO80i4qIMb2NZLf/7SR/6QSdjdu2S9SW3o5rEXHh2xwwCg3jjpQqRG9mOucCsiIwwNAiinVr2pQEzk8YmgwZRGRf2CgtIKI3uw16PQ13kNMs0jBLVRqjDONeOuFpFcZt9JJvf0e+81FDzhvGXci1wmKjwVBYRT/w1RdbGYzUNDiJKFtGNMx4VPzJ+4oatsGBRKFIryNfKuSya13GgUWtZ6BG/fv7twyBMG4BFOKtXjKM2xaiXSqpydsTvwsK4y5EHhEBWXrNE8Iy1ByaJ+SEjYykx/R3YYIo/OB9MVwJgUysZtO5D2yrTf7HgUXy56jiI5Rh3E+etRS0gwZoXG7JwmjLKPMibr9H7smeewzz6M1iwrhjL1i+Q/hAUAQf26qC9i6w37Qo1QxCmogqGPKICLKUgQv9jaeogkLJVQNIwhWbM12Tv+NUXIMDi4ovxWQ3KMK4W544Z4n3wXMjECjoiOmeDh5cFZejgl811VKKCuMuQHyZvsOCUmiOMIISVzbXCChxaZCYoh3RHGkHz8tDShvRABUcwiHkgEuhQhxBaib7lDEWuzIde0LSjuR/HFgkf44qNkIZxr3owgWZ9xedEBfGXQwocKDJPWWDFwMJoCg3jDskAEynh54JZRvIha1IxEhOwjiRa9kwRVCTwPbNi7RrNKoB+vYxQx0h/eY0mhaIRD0qFXyFEIEDi4otxeQ3lF3++bmw32NqVCwFvQJDM7BETXEug5opwZqFJVFsGHeBIhQZsuTaVI9w4+lv4SsMIKDkAS7wHMJpdQHbN0hSqk4obQSHQZuwcSBSC+LaiLiEhrFPFXjZNS/mwKLmU9A6A4C0/bdC2v4Lo95DSl2mxr4NuSbD9ByNs+A8BwJFKWHceaUBzn6ax4IvVlQu6F/+PbIPy9MfCU1dR5VRCow1+JRyIZQjMaQoTgRuU4hMS8fHgUU65qmsUUIY93Xe2zddJTSKQuIhqBkSF2iVy0xhvotUHC83jDvygsETYiMpKdcpozeV4iHbEeaEapDzi5qrYOaJLE8ape0b7lQ0WVR5CiLW9yrS8qJO72PWlDW5rVjZgUUrCrsWXUHa/sv9V798I2oU3D3KzQ2uMQRrILeS4lypeO6QCOPOk427JFlQT4gAAwICnLAM6ULqEijpqbUSWpmijDqOp2k4t47ipOSn+E76oX1R08SwhLoNfKMkWdSgkovgrIHQW6vL7MZ5H/PXzPkd5ShsGaqCRRNoB/iJiuSk4ELLYBs6jLvsN5DapaQ9IZbThjZBznM3pjxl4xAIh0GBQbdLOYuISbRqE1a+QnlCug5IfNIbvFSnWbTWym3lfmQY95o593MyExc7j4Ogw6PAYQORqFiMuLT9lbr8TM/uuaboI1poGRbOQeKC0kC4CYIaA+UYtLZBBsy60fk6qTmUA9novXEG/wEbyDIN45dUSi6t0Y7TLFpDyq3ch0rbL6IzZc90cXPOIuqcbT8I1zrwt2ij7P0ehcjIsidEu0rRHBCcgPrONQK+6EOKgmEfhAek+Qhieug+iFoTpoMtcRlAbmb6TXyikMtOShmnWSRlJio0DhnGveLcJ+kO0qhAKwoUcaHe+XiKioVx55OBUOf5SlS/OSegiUveJucuAjRVoGofAGoQFFz4MdtuVq7JhDrpfcxz+S45SecdWCRpNsociwzjfnzSCwAOfQN1OviH3+lf/E7NEn7MpklwsrNiYdz5rl2Qmw0N+UrphS+vOuIRH1rECDg2u4I1EwKJmBHZuqdjyvQ4/LX8F5ScEg4skjMXZY1EZuN+bNZKAIfe4Yep9RlngEjwgA3KoSYSFV+BZSsdxp1PADZyM2rhx7VlXcQUXCILsFwWlk6iJU0KA18BYd7bMl0HbM13zUk678AiSbNR4lhUGPdfIW3/aFsTtkWfr1xcnaqFcee5fk1ukhXJ17WxWG2EJzE5QopETHk5NMVLcECQv4l5QwlTq7IiyM0+ExeXON01q+bAomair1zH2SWXPghh3NN5piutAQS7NAqOl6BahvW7COMuM21/0VevIjcjH/qUi2Cr2eAviMmhYyIsIBHKsIWaB5SV5wgK4Ji0iUJsFfSA6PbEuYDcXFC0DGpcwYFFjSeg3O4hjPsXkLb/bAy6ojwFEpg2N2kh2gbnM3QY94tvFPTGsHKvzahPIjdDXAR/4jM3Ryg3Ji58Ev+Afcmqqj15zOZCEce4K0V4SDihQQGM99V4otMsKnqDuMZiJQBp+78HYdxftIVxB/e5PdCKNhrl6eAAU9X9HvnmGcjNusYBuVJct1ePb73Q6ZPfvFizDaElCGyI8LDIwrQvrkLYztv6Vsc06VrXdX+mx5BN+S47aeedZpG0GSlwPHK/x8brvxu3g5RvCCukaQ4eaL5Udb9HAQMz+Ap8StNFro7JhU+f/AoM5Jonx+VWcmKS6PNsLBpIWF/WLaQIPFTrgIb1mCS4APL1HLMK3hNyqIDLTlQRBxaJmo7CBgNp+z8l9nsgR8E1Be7NoPs9bGXxmA1c0FwpNxt3YVcWUYruNMUFrp7qnGzETWT0oU8VAlpeayIKR7AOJyx5HIZUFJiWgXkskKPQbQnzhDbcss/LDJxxb1nyqFFlF8FZI8GX2q1M279q+p2Uo6CLnJseVt5BLo5cDAblNmzBWc2v7fe83ZAmskr7PWJlITKE9g52muqHO/5g5oN+oCNXQFYuf12h7pOtbl2OggE1c8Q4WL82AhUVGcQJUUdfw8BTHi11/mtZz4FFLaVfZN8Qxj3OX3y8TtuP1fMFXtFu4mInghs8txJaLYw7jxwMvoKtQr1wCYDoRYlfkEdAYBBPe2UeGOue/qDoxL+T38bGMQoqDKgCQAHkq++xp67XiFS8VIhPizNDilywtSoOaftHAlCsofs9ovgFqh3w77Y6eE05B2vwrSJp+ysgMOQrtHlAvA7arCALXX+l3AHXBtA8UOOjpkfkkKlGg9oLGYusJ/ph/WrNQ4BF31Mfr4BIatKEA4uaiL24Tv2mbQMhbf9qvtXc5u3gId5U67C5ULnWgeVbbb9HPlEI3bdLkEYvBAK2utQbgQs5RFSwSHAGHHrR88VvCiugMhgI2YYki4j/ifiK/tNSyVeIS3Bgke9mrfF5ud/jiVnP4H4PqgUE96BpNvDz+YbPzRKhUbTafo98g6P7QagpkbvI4BsFCCUOg/hkvESoDjahytm0DKM91Z/sCvumBfh3Mr7MoJOcZpFv3t354iUgwrghbf8yL7v78DiQwHN04ds8IHG7R4P7Hv5BNu7s29trQ2ZaRJQZMCJ0lC5mDLji3gkMkDIWvrHiSbNwXGouaFoEKKzzVtA0enLdR2gTob4o1+GJFyAPez1t+0Go8J1mUfwabpUacr/HkksfgbT9YxEEqNeD7/60aRQ2MjOuXlXS9pcjLfC+1PXubZofYmFT7kAt3ND6pcfRhjFsGTUwi4miNQ9FhIoBaBpC9W/L+q3NDdoPti9cpkMv+Wk54qh1XQcWtZ6BiP6zq669DcK4Z9PcmTbNIXgI5paKjceggVW8LGoU1UrbX7J4hcu0J7hMOQrw3zYzAHGAluVaBSUhc0grUcHGRehjCEJwwLA2bH1RkBJ9DDxlfsnySEBFBxYJmAQ+BAjj/ndvy83/xAlNHjMRtb+DH8+7DwQ2hlUlbX+ZsjVcpriITetBex+sT3qymrmZIkHSZk4ok8RAAmWV6OAsizZDaRE9RNo/vHkMXKavlCmSmlZ3YFFT8Yc7V2Hc30GgsGkCpQw5ziSpWtr+UgaKdYQJ0l+ZIJRQJFoA5SWMdc+1CAUAnKSM3FnKx00ISmkBGVwEqjHmRjLdl/iSPejVDf7Eb8oRRxLqOrBIwiyoMWDa/kLeGBa+n6PYu6CkjasQAFK1tP3lyFWbIPU5k0Chgb5KoWkobcOwAHg5rIBcRyCM4KPqhzQMBAPKjeSq6H5J07mrRWCj0yFeJjR42l/KEUkS6roIziTMgnj4BGHcOm1/lMmBJCcfNt8PQgHCFtot2pFh3OL9HrUI484jdzRB+NOfAoN+wpOFiSSjLkftA/xOjslyBvmQ0xTQI0KHqjULBTbyD60f6kN6Qd6o63f86oTcaiUPw2kWJYuuchUhbf/JABQyjJuCRFxodpQblB5HkODHcmHcNdrvkU901AShngWlTdhySRhRW0Rz0Bsy6CImCz20e5SSklyzoKQoByEDxRQAyTKQFavxzD/lu+Q0nHdgUeNZkmHcSyfI6EyuNcTFRVB3Kl4Cj9C0bSJLUhh3pOilF0SpO3zhU0XAohEY28ERFCxt6L4ZGOnjUEe2ReviSXFOnKJ1OQBhXWGCHHH272t8m1WkewcWFRFjaY3ItP2LZzzNX1Zsqr3mjg1xjh6xRXBykMA64m9iwrijRCYS3QwalDvLOAi+PuVapmaIzaQgfSE/wYvFMj7qJOU15YuL8vTliUCsHseuAy/Iy6XdIcmq5cCiRvMRhHGf+Sws9j5UM6DDQU2B/g0eYLl/vDyet11WYsK442QOLJoOxFJkoQCDqIWJHIWBGVjPRF35y5Z308iPSeoYHhZSN2hI/Uf74v2KQKzDz/9ljW6xinfrwKLiIs3foEjbD2HcyzP+gYH5S4dL5Avb5jWSGMZtvW61F8SanQorkKe8PIQLFBavsbipRsJXPWsL174BOKrpyI1inNQU5anao85nhs26s5Q5TmIdBxatPCsqbf8CCOM+npoLaFqYD0O+aTz4HdzUYcWZtkHLJS6MO0bmYi9IyENBSUf1Xa9/9VtLg3EQWC4EQNyeUYhByxt9KBuEcxW0XQOT/IOe1/iRv2Q69tzbyrdY1bpzYFE10dobzi7//N2Qtn8qj6WwbR+3mSG2cnHgkbgw7jh5i/R5fXoHJbg2wLDR+CnMFIu2oLvKxy1ohMgNjnYvq6sDEmMoR8KvB4kNsR19xCW3tPLtVdXuHFhUVbxm45C2/5fettsuskVnFjsMW0h3CEhEGLdI25+GjyA2RxwfjNSi4nPwMKIo6cqOMDkKsEQic1OE6kY1hqAiktx0HbaprnHC4jSIvtAxOrAoVFJllsu+cPO/Qtr+q23RmeGHUyw3HzkSanoI4Ejifo84MerwblooShT5Vr8NcCwaS+S6zzcFeB7+hooGO0xvLvOWSVx1BxatMCUyjPuVr/0gXxg35zBsQysk9iKxYdxRssakvCK2gixC8R1jHfSCpIsTv9tIT9RQ6DkkQ/EvK6OVGjQlqJKj6tgwxOBYVIHM8LN/1wq3Vqt24cK9qyzu7MZ55/lr5ljDuHkQVtSmsXxRnXgJ2J5O25/AMO4ocdcfOSI4xcgC/EnJRprPQh4nfEKU94KWM8bAVAujnOBC2AAM0pOOV/MeQGwOueQXbYnYRHk5zaKKYAH7PWYCUNxny50Z3Gdxxm9uYFGkpm3oza/vrF3a/lJlCan+Mc+m8eSmC5WZFfIn1xBo/xGkptW6IAepYmNky2LXRjUdfUocFMTmkRf9vFRRJLme0yyqNDuQtv8EyMb9aCEcRTFDiNpIloowbtuF0lcT4pMczY+wopFzq0q3hHoXBzE19LZ1OGcL5DIUF1FGjUlaHqJ/pS0YpgWOm5gn8hDvV7hL+017BCI2/17MnKalrNMsqjBTEMZ9uL/i3EU0jLvYQKqoYUXlpUh8GHfUBYmIzcZ+oYAqiQVEc5Dv5yB8BZ4z3JhqMYfe5aEQgcZEYHtyWAgaWA6BQAFSaOgEVIy+hFYx8jM/qsItlYgmHVhUeBogbf9hEMb9HCzqhkLNjGKHQIFHfE9FGHeUVgHuUqtpwMobLwXCRUzNlIiFHWrbxm+wQqJI6PWE9FhOqSAgJ/eBPN/W3KV0GhxYFLtSY8qLMO7s4k88CWHc/XmxQoGDA4GtO7rjNGnZuIsSp9yKzrQKot4b287x6c9Xv1zZZq8GGYqniMkRQidqm1AwIVqH1nSoJkK7Fe7S0V+/pqjrT1lhBxYVmjAVxr3Q27/0Q3zBF2OCcFCJqov7PVpe2ZzI5DV5xSp3lzba82BSAEBTBP9awCGUpMZgKdVIaDvYBgeeOMI06oJknbavVYjLd2CR964urACEcc+FMO4pgqewRVdiK3wPCN/9ETxYc3cxZsDC47o+RGe2bEgpUChhZAaMtG7+sj75bWYGW+zyJychyTFjoxchSDVRSftQ5Kkx+/QY9i3qCK1i1JU3FHanpLeUA4sKzB2Ecd8KYdwXCs+HLSkN7SIqTDvQbgMdON9fsd8jNWHcNvmK3aX9GqS7FNdyqBjlI1QhjQ38XCA07cmwdYkYYrNisLwmVFUhwyOitA7qbQkGL7WKtXVDpt9XgVsp0U04sChzemTa/rdvukpoFFRriOIoolyfhXAaUuNIaNr+YsVYd8Sx2g1q5JOwaAv0IU7dlZFxFkaFYGQaX2LYVK15YGELwiDxqWmOgKv4SrHXn8byLs6ijFmDMO4r/HWf/A51kUa5Nrm2wE0NOgwascm1kkMvvZHYJLsFiVKFdmutQmgElCtgfALlHvWqh/IislK7PykAwHeerRublG0pU8LwrqiB02MSJ1RFDRCiX9RyxLghxb/XcNKytuwBoXPqNIuC7vBwoeyGez4FQPE/dAdplHZgM014tisOHrY6Om1/isK4beIVod15n/Q2joI1pjUSVhZ/MgoiqE2AJQREAiAsJKfRPJoo4m/Lbi9z7DXfKPEWSl01p1mUMGUqbf+dhWw1j9rvwbuNAxoBJElO21+wCBlXoclIpe7LP1T1p6tULWIjCIrYF5rXRM0BgQHb4CBBkYLWUdoEaiHGtVEVRWgVA86+F1L8ryz4+lNe0AauKb+k6g4fwrjHQRj3Gp6238ZF0GM204LvMo1ym7a8vsvzd+5Jp4uUTUf9uFO8jCA2bV4LWlaZE9YblAOKqhdqkhzg54zflr70ecJ/GN027/Hqpj8yPNNtMNiF7ePjzJAi5hnS9h8JYdxPco2CAwUSnej25EBh20UaBRSpDePmclVxFZKr4CQj/qbHBSdA2uBV8JQ+jnyCbT5VIfmHmhFYlnVEQSGU7l9oP6BVZIZ97kftCSiEqFIBFlve2TOgiDVdlaIQxj0A0vbLbNy42BEk4uIqKDfBA6zyBWulNozbNgNiD8jQMTkAsBIGajFTZMDFHTGroWYo50BMEWmNxIBUKFWeAh/qTtV91XXanRnzhW9X5UZLcKOp4Cw6dqxvuXvus5/7+8vbJk4Yf/iTJ500bNngQQ0QkdQ6H0jb3yP72KwFsPC70h7j3J30HNcsuGeEX0Wq93vYpkRoFUfBHhDNaqpNYag9EK8D5o+gZoK2BJhZIWMr8BjlHYgGwTeMyYQ6AjhYeb1RTY3RACH8ISq27AFS8wdfydR1AtKifX1SxVnsee9Aw+/vWHXVNf+89IfHHNfz0CcvOvonAB6rATyeqhZ4wH6PjtlFFy6A6Mxp4CI9BAu9o21xU+9FlEkR5VYV7dH6acrGXdBygbusw8RpsqhcqBwJkDgMBGF+DKJAnUKOgZ7DuhFth4hRVk6DCiExcay6rgzA+tDy+tNvO72g625jhVIFFih7ARq33rr0X755/arv4LHxJ/fe/JEzht1z+qQRTwB4PA3g8U4l5qpl5dd+5225+XJsKy41HnIUXKvgbtC4gK02BxRCqzj2BJm1O2QGEJAwNAC68KMmkQMMNzHoed4G7xfPR7Shxya0isn3joZ8FS9V4t5KWxupBAsUMnAZQ679+kO/uvvOTWf1H9zRe/9A1mvaJaJ+PA/A463JkwYvPPOMox5U4LGl1MkBvqK//84zk/wdi2Z6u56aDZvFRlDwsBGcXNPAMlERnDo6My3ZuAsRpgrAqh+di9YMbfrSgjQT2dDmqYkQAhyuUWibJVBjjLpRY47SdKh5BN4PIDVvqjv+y9cXcultsUyqwQIn5MGH1p3/uS/MuwvAolPfXgEN88HBLAePLQAeDwN4PFKu5gHg0dfftX6Cv3n+eQAeHwXwGBmneeS7cYww7ijaP18jSTwPYFE/gbhKcWGLv7YFyp/wlCvgrpGo33EaBjExZFekbMgMoSAk3lnaqe+rddP+97j2yFUQPE/iXVb8mMA06fH1bzxw622/evXTA4d28jrUmzjY3OJ7773fQjWPdwA85qHmMaCx57YOHeoCtaTID4BHI2gepynNY1YceERpFm0lOlOLTgRgDRnr1R3RNxxoRcGCaQKG5sEBIe6utfAXmh+h9eJ4Dj4WBIxD27zMqXNPbU8BWLYl0CY0C3phoGWce/FlDz8gjqGWYbtwDh6CMJ115tA/nHbqEUuOP37wmmOOHrgewKO5SNwIHlhN2/qB5nGi0Dz8f6w+A15VeLS+X2FnKveOyGzcu99tE0FXWl6C1Dx5WmAGUI0h7o6j2gYqH3QB88mwlc83YaxOMGFknwkfH5gfkK371voTrv9ivqbb+vk2BxZiwoDLOOzTl8196IkF204aMrxzQXNoAY/slEmHPXjGjFF/AfB4BsDj1TI0jwEAHuOV2TIHNI9hOKjm9fBNQFLK93sYQqakJtUiLDOh164NFMgx2xrXi5z2YS1IOiaahc1DYpojzvygU9YmwQIv8Ic3LvwueEy+ZzNL8iGIBTz+AeDxVwCPhwE8ngPweKUM8GgUnEf274+em92wcJb/7rMjvQ/UiARopBk4bKSmuLQo/iGPtpD3dJTpkG+C850X7Qrvxyl3tHvzA0XVpsFCXOSixa9Onv3xe5Z071Lnde5UesAqBw+hscyZNezPk047YsHJJx+xTGke2Xz3oO08ZAPv529dc3L29SUzADzOBvA4Ns3g0WHiZAAH8nYxoelzcwSPUUKS3I2GxmGLvaAAhJqFEi7ti1IUshl1wFBAbGMIvB83gvfjm6XMaVus0+bBQkwamCWDLrj4rsdWPLNr9JABoZiqkubVBh6TJw16+KMzRz0A4LG8LM0jAI+TADymAXjM9Lc+O8HDeMEkax4qUjPDU/tHLVDunaAzwVc58gq2MuxYpHlBwMKYdE56ivd/9ByzDIKvAPXcp91oFnihzc3Z+qu/9L93gLfkU4XyGMXcJho8DsCdtz/riT4QPMaPH7pyzOhBL4LZUqrm0QjgcQKAx1SleYxLnOYRF1NheyRFuU6jOIeY4wbPkFMe5PSFqsVxFrICXIjfsq9u2v3HZLoOKDk2p5h7Jy1l24VmQScDeIwbgMf4t2oABu2Hg4fgTaZPGfzgGdOHz584ccSy4cP7bWjo1aWplBsFzJb+AB4nAnhMz26Yd47/7vOjaw4ecCfVj1UxFfyi4kjHYsEhSjuIEKShoChzIzL0G3mKE378ccipeX8pc9OW67Q7sBCTCZvSLrnk4vl3lUJ8lnozCPBogf927IYnF2geIuL0zOlD/grg8SCAxxIAj9cAPJDmLKobEzwWngVmy3GtarZEmR94FVzNp+aHTcOI8ozk01A4kERpL1hO/A1Haf5/4CnaTfarYm60dgkWQkDLV2z88KQz717Zv3d9WcRnMcLmmgcFj659673ZZwyaN23qiEenThn1BIDH6wAeEIBR/AfiPPpAkJgiTOcBYfr8mKppHnHeDwvvIK8GwQK/08VLz9uITQ40vHwU0NjapeNTPEXdpF9PyWSsQeXFT0Qbq9FuwULM4/oX3zl66pl3vAhf68vxlFTinuCahwKPRQAeD504YeiK444bvLYMswU5D2G2XOhvfX5UxTQPFXwVuVuUCSdfGERJsoxotGDrB3gKP1O/rX7GQ0dnOvaEKCz3sUmgXYOFEIjwlEz/yO3r39yyv09cxGdr3z4cPLxudd75Zw1+VGgeAB6rADzWAHjsL2VcymwR3pYzATzOBfA4qiTwUHs/RParUJQm9YCgJ4M+9S1Eo17c1PNB3Jq5reJEOyGahqwfZ3rA+dDpgKfwIZ7itPYezp3vXmr3YCEEtH3HvsaZs29f+fcNe49MEmDQyYsAj2UTTxry5OTJI+cDePytDM6jLxCmEwE8zgDw+ASYLSPymi1xPIXNFEBTg5og9AJp0BYxTwwA4KoCAZJQDj7KRah+rGDSDPs+xv/CEZr5kELhcwHF2n4R2IjWa/bZty9/7oV/HJdUwOCzIHbWImEqzs2YOeBvM88Y8QCAx0IAj+dL5jyMILF5HwPwONoAD9FZ74EebD1vEU4Q6+sGLdqBLWuVvqZCSU8OMBQwEBQwAIyPgWshbtt5UQvbaRZEXGkEDDrbFvBYD+Dxl1NOGf44xHqsKkPzEK7aCUGQ2LxLATyGdZgwHna+eQO9Osg0KKI1MUYd7ij9BCcaghxnlFcEL4JqF1zTwLYs4BACHBug8LbFBrHGj9xbd/KNFzhCszDMcGDB5JR2wMgDHk9POX3o49Omjnp0zJhBaxr799hd2G1iloKcpN295qausL/lFH/76hnerhUXeE1vDpWlEDww3DvfHRZlssQNjHtZKBBF1Qt7Pp4Cz8ckBxSF3wH5prLwltpQybYEGBw8aDaxqTMaN0yfNuwhAI8HADyeBfDYW+o0yuznu9afBuDxUQCPSwA8GgzwIJqHNekM1S44F8FZSapl0Ds4hsPQryAULwfq3LihbvIfT3Sej+Jm24FFhLwEYEw74zdrgPQckRYOo7ipD2cTA/B4HsDjEUiCvPLUU0csBfD4R7FtYnkAj4EEPM4H8OgfAg++0KPMEMpnFKI5IJjowcAX2YZ0ke6on/LncS6Uu/iZdWARIzMBGBNP+9WmnbsO9Kl1HEbxU1t8DZ6K8LQp/d86/bTB8yEJ8nxIRbgUkiDvLL7VoAaAx2EAHpNA8zgXNI8LATyC1ypwzoN2wEjP2AzdshMEBfJXtyeToO2umzJ3HLwc6M1Sr6M913NgkWf2RSKdk0/99euwkLq0B8Cg4rDlMYUM6vcCeDyuXr8gSM6iP74Py/7A9kEAHpMBPM4C8PgYgEevEHhwjYLHaYgKXBth8R2oUYBWsT8z6c4JkJn75aIH7CpICTiwKOBGAMAYOHLML7f26l4fyu1ZQPU2U8QCHk0AHnMBPEQS5CWgeWwr9WKV5iHA4xwAj08AeHSLBA/bnUsCv8zcGaBRtOwTSWw+DEFXq0sdn6vnwKLge2Dt85tHjxv7u/Wtufms4MHVqKAFPHYq8HhMaR5bSx2aAg9BmM4B8DgPwKOfAR4kuQ6N3wil/hexFBN/O6WuccLSUsfi6gUScJpFEXcCZN2aNG3q3GXV3t5exJASVdSSitCDJMhzIQnygilTRs2DDOrby0hFKMyWUwE8ZgN4fDwEHiQXYQAYSqOY+NupABRLEiWolA7GgUWRE4fb2x1g5BecLQkygMefATwWAng8AmZLSZyH6Fl5W04H8JgF4DEbwONwrXmIL9kmlz8z/xQVVcKBRVHiCgpDAp1vQwKd/3CAUZzwIvKYPqKSIK+CVITrynj9gnDVTlSax1mZcd+/2G0MK25+8pV2YJFPQhHnr/zC3Dtu+8OGz1Qqp2eJw0hcNQEI4iNydYiPCALDT5NIOUg/kARIf2BXrfhc+ZmRD0MS5IWQx3QxgMcLpZotiRNMGxiQA4sSJ1Hk9Jw55zdLnnpm52ltNWhLicbY64m7X2UkqMo3Shf8wH4dvN4NnXf369t582EDu7zVr2/XHV27dtzft2/XnV06d2jq1r3T3q5d6kU6Qbz3xF/xX/3OnU0DD3zQ3GvXrqYjtm3fP/rgwebuo0b2fWbC+CF/hdcvLIU8putKnC5XrQIScGBRhhAhaKv76LG3bAWvQI+2FoNhgIJ62bQQFZheLaOO7LVu3NjG1aNG9XtpQGOPd4cO7fPGiBH9XuvYsb6lT+9uu0AbiNvuVZLERYAcVGwuNYdHSZ26SoYEHFiUeUNAtq1RY0b/9tW0u1R5gmGRqWv8cX3WQwTngtHHDlh71FEDXgZA2Kg8GhUHgzKnwVVvBQk4sKiAkOH9qnPOPeeBR9JEeFrIxiy8NOlu4AueEK8ugBygm0rNh1EBkbomEigBBxYVmpQb/n3+92/47rPfSjJgUIAQ2cU/fs7wP4InYh7wAWvFe00qJArXTBuVgAOLCk7s+Rfe/vD8x985K0mEJ02IA2+K337FZ0bfMnv26HsBHF4q9aVHFRSZaypFEnBgUcHJUoTnO7BAe9aS8BQaxLs74dXs4Jocf3LvjVdcdvzPz5hx9HwAiL9X8HJdU+1MAg4sKjzhsIfkWNhD8mItzBGpRWw55Amy9eorj/9/F15wwh0AEG6XZYXnuL0258CiCjN/++9XXnb5ZY/d3hqAQXmI8y88fME1/zzpB6dPGrnMmRhVmNh23qQDiyrdABDh+XuI8PxslSI8fQCJzLtvQYo4iHy84Zvj//PzV572Y9hrsaNKl+OadRJwu06rdQ+ICM8xJ9zyFmTZGlRJ/kLyEQASoLV8cMO3T/3KRRed9AcXqFStWXTtUgk4zaKK9wMGbFXCHKEg8V83zrj8gk+M/7MzNao4ea7pkASC3TvuUxUJALn42m2/mXb15k0lvRxdjkmAhKgvNmbdPXf2p9547V+6XXLxiXc7oKjKlLlGYyTgNItWuD0uufSP9z0w/63zio2/2PVes9cE+zJ+9vPJX/viVZN/5gCiFSbLdREpAQcWrXBzwLtUew07+pY9hebwRBfoNV8d/evvfHvmdZCSf08rDNN14SQQKwFnhrTCDQKL/b35910wRXov8nyEyXH0qIZ1a5+/YszPfnL+FxxQ5JOYO99aEnBg0UqSnjb1qKXXfXPsTzdvO2TtUWgTAiiA47hqxZKrxo4bO8Tt1WiluXHdFCYBZ4YUJqeKlAJ3ah24U98m7lSRKqpOgAS8DeyZu+685KPlvMinIoN0jTgJOAkkQwIiHNzzvu8PGf4jf+DQmyAvxPd9yOn5rWSMzo3CScBJIFESEAl/BUj0H3yjD+BxTKIG5wbjJOAkkCwJQDj4b2GXao9kjcqNxknAScBJwEnAScBJwEnAScBJwEnAScBJwEnAScBJwEnAScBJwEnAScBJwEnAScBJwEnAScBJwEnAScBJIEYC/wfaJmsIiPgDqAAAAABJRU5ErkJggg==;" vertex="1" parent="1"><mxGeometry x="317.62" y="242" width="42.38" height="30" as="geometry"/></mxCell><mxCell id="nVxw3XfElfVHrRnSqrNV-9" value="" style="sketch=0;pointerEvents=1;shadow=0;dashed=0;html=1;strokeColor=none;fillColor=#505050;labelPosition=center;verticalLabelPosition=bottom;verticalAlign=top;outlineConnect=0;align=center;shape=mxgraph.office.concepts.settings_office_365;fontSize=10;aspect=fixed;" vertex="1" parent="1"><mxGeometry x="324.81" y="184" width="24" height="24" as="geometry"/></mxCell></root></mxGraphModel></diagram></mxfile>